<svg width="108" height="32" viewBox="0 0 108 32" fill="none" xmlns="http://www.w3.org/2000/svg">
<path d="M16 -6.99382e-07C11.7565 -5.13895e-07 7.68687 1.68571 4.68629 4.68629C1.68571 7.68687 -5.64497e-07 11.7565 -6.99382e-07 16C-8.34267e-07 20.2435 1.68571 24.3131 4.68629 27.3137C7.68687 30.3143 11.7565 32 16 32L16 16L16 -6.99382e-07Z" fill="#4D13D1"/>
<path d="M40.732 22.216C36.748 22.216 34.756 20.086 34.756 15.826C34.756 13.69 35.278 12.094 36.322 11.038C37.366 9.97 38.836 9.436 40.732 9.436C41.776 9.436 42.712 9.616 43.54 9.976C44.38 10.324 45.04 10.864 45.52 11.596C46.012 12.316 46.258 13.198 46.258 14.242H43.576C43.576 13.438 43.318 12.808 42.802 12.352C42.286 11.884 41.614 11.65 40.786 11.65C39.658 11.65 38.818 11.986 38.266 12.658C37.714 13.33 37.438 14.296 37.438 15.556V16.096C37.438 18.7 38.554 20.002 40.786 20.002C41.662 20.002 42.358 19.774 42.874 19.318C43.402 18.862 43.666 18.232 43.666 17.428H46.258C46.258 18.484 46.018 19.372 45.538 20.092C45.058 20.8 44.404 21.334 43.576 21.694C42.748 22.042 41.8 22.216 40.732 22.216ZM52.4802 22.216C50.8602 22.216 49.6542 21.814 48.8622 21.01C48.0702 20.206 47.6742 18.958 47.6742 17.266C47.6742 15.574 48.0702 14.326 48.8622 13.522C49.6542 12.718 50.8602 12.316 52.4802 12.316C54.1002 12.316 55.3062 12.718 56.0982 13.522C56.9022 14.326 57.3042 15.574 57.3042 17.266C57.3042 18.958 56.9022 20.206 56.0982 21.01C55.3062 21.814 54.1002 22.216 52.4802 22.216ZM52.4802 20.2C53.2842 20.2 53.8662 19.972 54.2262 19.516C54.5862 19.048 54.7662 18.346 54.7662 17.41V17.122C54.7662 16.186 54.5862 15.49 54.2262 15.034C53.8662 14.566 53.2842 14.332 52.4802 14.332C51.6762 14.332 51.0942 14.566 50.7342 15.034C50.3862 15.49 50.2122 16.186 50.2122 17.122V17.41C50.2122 18.346 50.3862 19.048 50.7342 19.516C51.0942 19.972 51.6762 20.2 52.4802 20.2ZM59.2721 12.532H61.3781L61.5581 13.774H61.6841C62.4521 12.802 63.4361 12.316 64.6361 12.316C65.6081 12.316 66.3701 12.58 66.9221 13.108C67.4861 13.636 67.7681 14.482 67.7681 15.646V22H65.3021V16.168C65.3021 15.58 65.1641 15.154 64.8881 14.89C64.6121 14.626 64.2041 14.494 63.6641 14.494C63.1121 14.494 62.6501 14.692 62.2781 15.088C61.9181 15.472 61.7381 15.952 61.7381 16.528V22H59.2721V12.532ZM72.814 22.216C71.926 22.216 71.29 21.976 70.906 21.496C70.522 21.016 70.33 20.41 70.33 19.678V14.548H69.196V12.532H70.384L70.798 9.868H72.796V12.532H74.434V14.548H72.796V19.426C72.796 19.942 73.054 20.2 73.57 20.2H74.434V21.928C74.23 22 73.972 22.066 73.66 22.126C73.36 22.186 73.078 22.216 72.814 22.216ZM76.2702 12.532H78.3762L78.5742 14.062H78.7002C78.9042 13.522 79.1682 13.096 79.4922 12.784C79.8162 12.472 80.2422 12.316 80.7702 12.316C81.1182 12.316 81.4302 12.37 81.7062 12.478V14.782H81.0222C80.2182 14.782 79.6362 15.004 79.2762 15.448C78.9162 15.88 78.7362 16.54 78.7362 17.428V22H76.2702V12.532ZM85.4443 22.216C84.7123 22.216 84.0403 22.024 83.4283 21.64C82.8163 21.256 82.5103 20.56 82.5103 19.552C82.5103 18.34 83.0083 17.482 84.0043 16.978C85.0003 16.462 86.4103 16.204 88.2343 16.204V15.538C88.2343 15.118 88.1383 14.794 87.9463 14.566C87.7663 14.338 87.4183 14.224 86.9023 14.224C86.3503 14.224 85.9543 14.308 85.7143 14.476C85.4863 14.644 85.3723 14.842 85.3723 15.07V15.34H82.9963C82.9843 15.268 82.9783 15.136 82.9783 14.944C82.9783 14.152 83.3263 13.516 84.0223 13.036C84.7303 12.556 85.6663 12.316 86.8303 12.316C88.1263 12.316 89.0923 12.58 89.7283 13.108C90.3763 13.636 90.7003 14.398 90.7003 15.394V19.57C90.7003 19.786 90.7603 19.948 90.8803 20.056C91.0003 20.152 91.1503 20.2 91.3303 20.2H91.8343V21.928C91.4503 22.12 90.9763 22.216 90.4123 22.216C89.9203 22.216 89.5063 22.108 89.1703 21.892C88.8463 21.676 88.6243 21.37 88.5043 20.974H88.3963C88.0483 21.382 87.6463 21.694 87.1903 21.91C86.7463 22.114 86.1643 22.216 85.4443 22.216ZM86.2183 20.272C86.9143 20.272 87.4243 20.08 87.7483 19.696C88.0723 19.3 88.2343 18.778 88.2343 18.13V17.842C86.0863 17.842 85.0123 18.322 85.0123 19.282C85.0123 19.582 85.1083 19.822 85.3003 20.002C85.5043 20.182 85.8103 20.272 86.2183 20.272ZM97.0482 22.216C95.7282 22.216 94.6902 21.946 93.9342 21.406C93.1902 20.854 92.8182 20.122 92.8182 19.21L92.8362 18.994H95.2302V19.12C95.2422 19.54 95.4282 19.846 95.7882 20.038C96.1602 20.218 96.6102 20.308 97.1382 20.308C97.6302 20.308 98.0502 20.242 98.3982 20.11C98.7462 19.978 98.9202 19.762 98.9202 19.462C98.9202 19.126 98.7402 18.874 98.3802 18.706C98.0322 18.538 97.4802 18.37 96.7242 18.202C95.9442 18.022 95.3082 17.842 94.8162 17.662C94.3242 17.47 93.8982 17.176 93.5382 16.78C93.1782 16.384 92.9982 15.856 92.9982 15.196C92.9982 14.272 93.3822 13.564 94.1502 13.072C94.9302 12.568 95.9322 12.316 97.1562 12.316C98.2962 12.316 99.2382 12.55 99.9822 13.018C100.726 13.474 101.098 14.098 101.098 14.89L101.08 15.304H98.6862V15.196C98.6862 14.884 98.5362 14.644 98.2362 14.476C97.9482 14.308 97.5582 14.224 97.0662 14.224C96.5742 14.224 96.1842 14.29 95.8962 14.422C95.6082 14.554 95.4642 14.74 95.4642 14.98C95.4642 15.28 95.6262 15.502 95.9502 15.646C96.2862 15.79 96.8202 15.934 97.5522 16.078C98.3562 16.258 99.0102 16.438 99.5142 16.618C100.018 16.798 100.456 17.092 100.828 17.5C101.2 17.908 101.386 18.46 101.386 19.156C101.386 21.196 99.9402 22.216 97.0482 22.216ZM105.808 22.216C104.92 22.216 104.284 21.976 103.9 21.496C103.516 21.016 103.324 20.41 103.324 19.678V14.548H102.19V12.532H103.378L103.792 9.868H105.79V12.532H107.428V14.548H105.79V19.426C105.79 19.942 106.048 20.2 106.564 20.2H107.428V21.928C107.224 22 106.966 22.066 106.654 22.126C106.354 22.186 106.072 22.216 105.808 22.216Z" fill="#4D13D1"/>
</svg>
