<svg width="31" height="24" viewBox="0 0 31 24" fill="none" xmlns="http://www.w3.org/2000/svg">
<g clip-path="url(#clip0)">
<path d="M26.2428 2.13722C24.267 1.23116 22.1482 0.563609 19.9329 0.181276C19.8925 0.173897 19.8522 0.192337 19.8314 0.229219C19.5589 0.713587 19.2571 1.34549 19.0457 1.84215C16.663 1.48565 14.2925 1.48565 11.9587 1.84215C11.7473 1.33445 11.4345 0.713587 11.1607 0.229219C11.14 0.193568 11.0997 0.175128 11.0593 0.181276C8.84522 0.562387 6.72643 1.22994 4.74937 2.13722C4.73226 2.1446 4.71759 2.1569 4.70785 2.17287C0.688964 8.17349 -0.411977 14.0266 0.128108 19.8072C0.130551 19.8354 0.146436 19.8625 0.168431 19.8797C2.81998 21.8258 5.38846 23.0072 7.90924 23.7903C7.94958 23.8026 7.99232 23.7879 8.018 23.7547C8.61429 22.9409 9.14583 22.0828 9.60157 21.1804C9.62847 21.1275 9.6028 21.0648 9.54783 21.0439C8.70471 20.7243 7.9019 20.3345 7.12965 19.892C7.06857 19.8563 7.06368 19.769 7.11987 19.7272C7.28238 19.6055 7.44493 19.4789 7.60011 19.351C7.62818 19.3277 7.6673 19.3228 7.70031 19.3375C12.7737 21.6525 18.2662 21.6525 23.2796 19.3375C23.3127 19.3215 23.3518 19.3265 23.3811 19.3498C23.5363 19.4777 23.6988 19.6055 23.8625 19.7272C23.9187 19.769 23.9151 19.8563 23.854 19.892C23.0817 20.3431 22.2789 20.7243 21.4346 21.0427C21.3796 21.0636 21.3552 21.1275 21.3821 21.1804C21.8476 22.0815 22.3791 22.9396 22.9644 23.7535C22.9889 23.7879 23.0328 23.8026 23.0732 23.7903C25.6062 23.0072 28.1746 21.8258 30.8262 19.8797C30.8494 19.8625 30.8641 19.8367 30.8665 19.8084C31.5129 13.1254 29.7839 7.32031 26.2831 2.1741C26.2746 2.1569 26.2599 2.1446 26.2428 2.13722ZM10.3592 16.2874C8.83177 16.2874 7.57321 14.8859 7.57321 13.1648C7.57321 11.4436 8.80736 10.0422 10.3592 10.0422C11.9232 10.0422 13.1696 11.4559 13.1451 13.1648C13.1451 14.8859 11.911 16.2874 10.3592 16.2874ZM20.6599 16.2874C19.1325 16.2874 17.8739 14.8859 17.8739 13.1648C17.8739 11.4436 19.1081 10.0422 20.6599 10.0422C22.2239 10.0422 23.4703 11.4559 23.4459 13.1648C23.4459 14.8859 22.2239 16.2874 20.6599 16.2874Z" fill="#5865F2"/>
</g>
<defs>
<clipPath id="clip0">
<rect width="31" height="24" fill="white"/>
</clipPath>
</defs>
</svg>
