<svg width="20" height="20" viewBox="0 0 20 20" fill="none" xmlns="http://www.w3.org/2000/svg">
<g clip-path="url(#clip0)">
<path d="M19.8408 18.0383L14.67 12.8675C15.6425 11.53 16.2175 9.885 16.2175 8.10833C16.2175 3.6375 12.58 0 8.10833 0C3.6375 0 0 3.6375 0 8.10833C0 12.58 3.6375 16.2167 8.10833 16.2167C9.80333 16.2167 11.3775 15.6942 12.6808 14.8017L17.8792 20L19.8408 18.0383ZM2.37833 8.10833C2.37833 4.94833 4.94917 2.3775 8.10917 2.3775C11.2692 2.3775 13.84 4.94833 13.84 8.10833C13.84 11.2683 11.2692 13.8392 8.10917 13.8392C4.94833 13.8392 2.37833 11.2683 2.37833 8.10833Z" fill="#9D9EA6"/>
</g>
<defs>
<clipPath id="clip0">
<rect width="20" height="20" fill="white"/>
</clipPath>
</defs>
</svg>
