<svg width="30" height="24" viewBox="0 0 30 24" fill="none" xmlns="http://www.w3.org/2000/svg">
<path d="M30 2.84126C28.8962 3.32363 27.71 3.64848 26.465 3.79491C27.7363 3.04553 28.7125 1.85808 29.1712 0.442986C27.9825 1.137 26.665 1.64151 25.2625 1.91345C24.1412 0.735849 22.54 0 20.77 0C16.7962 0 13.8763 3.64971 14.7738 7.43847C9.66 7.18622 5.125 4.77441 2.08875 1.1087C0.47625 3.83183 1.2525 7.39417 3.9925 9.19811C2.985 9.16612 2.035 8.89417 1.20625 8.44011C1.13875 11.2469 3.1825 13.8728 6.1425 14.4573C5.27625 14.6887 4.3275 14.7428 3.3625 14.5607C4.145 16.9676 6.4175 18.7186 9.1125 18.7678C6.525 20.765 3.265 21.6571 0 21.2781C2.72375 22.9971 5.96 24 9.435 24C20.8625 24 27.3187 14.4992 26.9287 5.97785C28.1312 5.12264 29.175 4.05578 30 2.84126Z" fill="#00ACEE"/>
</svg>
