<svg width="291" height="252" viewBox="0 0 291 252" fill="none" xmlns="http://www.w3.org/2000/svg">
<mask id="mask0_96_474" style="mask-type:alpha" maskUnits="userSpaceOnUse" x="0" y="0" width="291" height="252">
<rect width="291" height="252" fill="#C4C4C4"/>
</mask>
<g mask="url(#mask0_96_474)">
<path fill-rule="evenodd" clip-rule="evenodd" d="M136.562 232.053C137.239 227.851 137.859 223.638 138.422 219.415C138.689 217.41 138.95 215.404 139.185 213.394C139.348 211.986 139.599 210.375 138.728 209.332C137.503 207.864 136.391 206.608 136.241 204.505C136.099 202.526 136.708 200.37 137.087 198.45C137.884 194.422 138.877 190.445 139.973 186.504C141.087 182.502 142.309 178.537 143.548 174.579C144.706 170.879 145.82 167.145 147.329 163.595C150.193 156.858 155.037 151.868 161.025 148.537C162.514 147.709 165.551 144.751 167.107 144.088C168.537 143.48 168.532 145.258 169.939 144.588C171.065 144.053 172.113 143.339 172.742 142.143C173.427 140.845 175.143 139.029 175.404 137.518C175.957 134.315 175.358 131.588 177.435 129.178C179.28 127.037 181.758 125.57 184.323 124.783C189.965 123.051 197.49 124.262 200.894 130.032C202.52 132.787 203.089 136.118 205.283 138.366C207.199 140.33 206.77 141.673 209.251 142.684C209.392 142.742 213.201 141.843 213.342 141.9C216.056 141.261 218.651 143.051 221.141 144.088C224.854 145.637 228.389 147.651 231.71 150.045C238.406 154.874 244.141 161.144 248.87 168.239C253.637 175.392 257.336 183.411 259.97 191.791C260.61 193.826 261.184 195.886 261.691 197.966C261.975 199.13 262.278 200.338 261.932 201.53C261.65 202.505 261.022 203.231 260.284 203.816C259.283 204.609 257.277 205.125 257.316 206.721C257.346 207.934 257.72 209.21 257.902 210.408C258.119 211.836 258.298 213.271 258.476 214.706C259.288 221.231 259.92 227.794 260.2 234.375C260.475 240.855 260.703 247.467 260.295 253.946C260.268 254.373 260.152 254.765 259.965 255.096C260.14 255.169 260.153 255.527 259.936 255.577C259.784 255.613 259.632 255.649 259.48 255.684C259.165 255.947 258.771 256.108 258.318 256.124C258.011 256.135 257.704 256.149 257.397 256.167C254.159 256.912 250.922 257.615 247.642 258.148C243.655 258.796 239.656 259.324 235.645 259.752C227.402 260.635 219.225 260.342 210.972 259.867C202.731 259.393 194.495 259.282 186.246 259.518C177.99 259.754 169.737 260.149 161.478 260.311C152.253 260.491 143.041 260.214 133.841 259.407C132.579 259.297 131.8 258.192 132.048 256.813C133.539 248.554 135.227 240.349 136.562 232.053Z" fill="#D08B5B"/>
<path fill-rule="evenodd" clip-rule="evenodd" d="M221.141 144.089L220.96 144.013C218.525 142.965 215.99 141.276 213.341 141.9C213.247 141.862 211.523 142.248 210.343 142.494L211.464 143.781L213.441 144.199C206.618 156.592 198.548 162.787 189.232 162.787C179.916 162.787 172.847 156.592 168.025 144.199L167.367 143.999C167.286 144.02 167.199 144.049 167.106 144.089C165.551 144.751 162.514 147.709 161.025 148.537C155.037 151.868 150.193 156.858 147.329 163.595C145.87 167.027 144.781 170.63 143.664 174.209L143.548 174.579C142.308 178.537 141.087 182.501 139.973 186.504C138.924 190.273 137.97 194.076 137.192 197.924L137.087 198.449C136.706 200.37 136.099 202.526 136.24 204.505C136.294 205.254 136.469 205.896 136.729 206.478L150.223 211.822L143.794 260.077C149.683 260.354 155.578 260.426 161.478 260.311C169.736 260.149 177.99 259.753 186.246 259.518C194.245 259.289 202.231 259.386 210.222 259.825L212.251 259.939C220.071 260.369 227.828 260.589 235.644 259.753L236.177 259.695L236.177 252.637L233.431 213.332L247.345 210.45L261.004 203.149C261.417 202.696 261.748 202.166 261.932 201.53C262.252 200.426 262.015 199.308 261.753 198.225L261.691 197.966C261.184 195.885 260.609 193.826 259.97 191.79C257.336 183.41 253.637 175.392 248.869 168.239C244.141 161.144 238.405 154.874 231.709 150.045C228.388 147.651 224.853 145.636 221.141 144.089Z" fill="#EC7495"/>
<path fill-rule="evenodd" clip-rule="evenodd" d="M215.916 141.697C215.062 141.656 214.192 141.808 213.341 141.9C213.267 141.908 213.239 142.034 213.322 142.053C214.846 142.404 216.352 142.882 217.848 143.369L218.489 143.578C220.176 144.127 221.814 144.694 223.447 145.426C226.702 146.886 229.793 148.857 232.639 151.12C243.595 159.838 251.524 173.036 256.528 186.7C257.887 190.411 259.039 194.214 259.971 198.082C260.198 199.023 260.411 199.967 260.614 200.915C260.673 201.192 260.932 201.904 260.79 202.188C260.665 202.44 260.177 202.595 259.95 202.725L259.185 203.162C257.693 204.008 255.207 205.4 254.957 205.536L254.568 205.747C248.209 209.178 241.414 212.087 234.257 212.288L234.201 211.615C233.882 207.897 233.464 204.16 232.55 200.556C232.501 200.362 232.277 200.427 232.256 200.599C231.747 204.866 231.91 209.165 232.087 213.451C232.402 221.043 232.82 228.63 233.191 236.218C233.377 240.014 233.617 243.808 233.834 247.602C234.051 251.404 234.121 255.296 234.617 259.067C234.728 259.907 235.622 260.364 236.3 260.276C237.049 260.177 237.626 259.451 237.629 258.618C237.638 256.422 237.388 254.199 237.248 252.008C237.116 249.927 236.974 247.846 236.828 245.766C236.296 238.173 235.684 230.589 235.118 222.999C234.917 220.307 234.7 217.618 234.477 214.928C242.058 214.659 249.141 211.569 255.898 207.959C255.995 210.402 256.232 212.842 256.46 215.275C257.099 222.066 257.661 228.854 258.083 235.666C258.295 239.107 258.45 242.552 258.585 245.996C258.651 247.69 258.705 249.384 258.747 251.077C258.761 251.642 258.773 252.207 258.784 252.772L258.807 254.065C258.826 254.885 258.902 255.645 259.529 256.241C260.165 256.847 261.025 256.88 261.655 256.241C262.499 255.386 262.349 254.222 262.324 253.074C262.304 252.105 262.279 251.138 262.25 250.17C262.191 248.234 262.117 246.299 262.027 244.364C261.71 237.601 261.078 230.865 260.252 224.156L259.929 221.566C259.327 216.751 258.666 211.827 257.32 207.19C257.844 206.902 258.367 206.613 258.887 206.323C259.811 205.809 260.766 205.326 261.664 204.758C262.376 204.307 262.99 203.689 263.189 202.777C263.41 201.76 263.072 200.649 262.847 199.658L262.827 199.57C262.607 198.572 262.37 197.578 262.12 196.588C261.105 192.576 259.85 188.641 258.381 184.802C255.44 177.117 251.645 169.815 247.008 163.214C242.835 157.271 237.905 151.882 232.126 147.84C229.302 145.864 226.291 144.241 223.107 143.095C221.619 142.558 220 142.092 218.442 141.9C217.602 141.797 216.76 141.737 215.916 141.697ZM200.8 129.518C199.786 128.321 197.771 129.56 198.258 131.146C199.403 134.88 201.226 138.284 204.072 140.737C206.747 143.042 209.936 144.54 213.372 144.22C213.398 144.218 213.421 144.21 213.442 144.199L213.146 144.641C210.822 148.101 208.37 151.513 205.414 154.341C199.393 160.102 191.195 163.21 183.28 160.999C177.051 159.26 171.564 153.841 169.95 146.933C170.181 147.048 170.456 147.087 170.758 147.015C172.05 146.706 173.327 145.212 174.16 144.14C175.062 142.981 175.765 141.729 176.28 140.314C177.224 137.725 177.527 134.391 176.238 131.884C176.079 131.574 175.713 131.747 175.682 132.05L175.632 132.52C175.384 134.871 175.074 137.145 174.067 139.288C173.574 140.336 172.984 141.36 172.264 142.238C171.88 142.708 171.462 143.157 171.012 143.55C170.573 143.935 170.042 144.212 169.649 144.653L169.576 144.737L169.574 144.722C169.475 143.792 168.882 143.381 168.301 143.407C167.74 143.432 167.081 143.704 166.825 143.834L166.801 143.847C162.884 145.916 159.276 148.613 155.88 151.605C148.859 157.795 143.599 165.885 141.05 175.412C139.798 180.088 139.081 184.906 138.322 189.701L137.856 192.64C137.149 197.067 136.359 201.581 134.762 205.7C134.349 206.764 134.668 207.763 135.681 208.183C136.945 208.706 138.214 209.213 139.485 209.712C138.861 212.659 138.48 215.708 138.013 218.669C137.019 224.964 135.801 231.219 134.756 237.506C134.222 240.72 133.74 243.946 133.207 247.16C132.95 248.708 132.682 250.254 132.421 251.801C132.281 252.636 132.154 253.472 132.019 254.308L131.996 254.447C131.919 254.887 131.823 255.343 131.933 255.784C132.059 256.288 132.416 256.643 132.734 257.004C132.996 257.301 133.376 257.302 133.696 257.141L133.802 257.087C134.376 256.791 134.826 256.497 135.029 255.784C135.158 255.334 135.204 254.825 135.288 254.361C135.45 253.471 135.604 252.579 135.748 251.684C136.037 249.895 136.32 248.104 136.595 246.312L136.853 244.634C137.737 238.85 138.576 233.032 139.001 227.187C139.189 224.594 139.389 222.003 139.59 219.412L139.741 217.468C139.933 215.009 140.166 212.487 140.199 209.993L140.959 210.29L144.669 211.733C145.588 212.091 146.759 212.824 147.749 212.691C148.233 212.625 148.602 212.457 148.888 212.153C148.546 217.457 148.084 222.752 147.468 228.02C146.907 232.813 146.286 237.601 145.552 242.365C145.188 244.726 144.814 247.083 144.408 249.433C144.206 250.61 143.996 251.784 143.781 252.957C143.673 253.542 143.545 254.127 143.461 254.718C143.366 255.393 143.535 255.809 143.878 256.365C144.159 256.821 144.723 257.056 145.179 256.741C145.785 256.323 146.1 255.961 146.278 255.2C146.44 254.509 146.538 253.788 146.664 253.088C146.895 251.796 147.118 250.503 147.333 249.208C147.784 246.5 148.199 243.784 148.571 241.061C149.878 231.467 150.707 221.793 151.127 212.103C151.334 207.322 151.397 202.538 151.361 197.752C151.342 195.298 151.269 192.839 151.112 190.392C150.952 187.915 150.619 185.488 150.323 183.034C150.313 182.948 150.202 182.943 150.197 183.034C150.057 185.785 149.836 188.532 149.729 191.289C149.626 193.92 149.581 196.555 149.499 199.188C149.391 202.648 149.242 206.11 149.045 209.569C148.687 209.139 148.148 208.89 147.609 208.987C146.829 208.807 145.988 208.357 145.243 208.082L142.435 207.051C140.96 206.508 139.484 205.969 138.003 205.447C139.328 200.545 140.234 195.57 141.009 190.523L141.355 188.253C142.038 183.784 142.775 179.314 144.014 174.987C145.315 170.438 147.264 166.209 149.848 162.379C152.396 158.604 155.495 155.281 158.687 152.172C161.419 149.511 164.341 147.108 167.128 144.52C167.099 144.691 167.093 144.88 167.118 145.088C167.711 149.859 169.973 154.304 173.126 157.609C179.459 164.25 188.834 165.627 196.94 162.513C204.782 159.502 211.714 152.368 214.163 143.54C214.205 143.39 214.021 143.329 213.947 143.44C213.812 143.646 213.675 143.85 213.538 144.055C213.548 143.974 213.509 143.885 213.418 143.847C210.56 142.632 207.754 140.91 205.611 138.474C204.567 137.286 203.656 135.941 202.937 134.489C202.592 133.795 202.283 133.075 202.036 132.331L201.973 132.139C201.674 131.207 201.424 130.256 200.8 129.518Z" fill="black"/>
<path fill-rule="evenodd" clip-rule="evenodd" d="M217.325 64.1326C216.457 63.1053 215.347 62.3399 214.133 62.0953C215.242 62.7065 216.327 63.3436 217.325 64.1326ZM219.026 72.9907C219.179 72.2077 219.282 71.4172 219.315 70.627C219.121 70.9523 218.811 71.1695 218.463 71.2818C218.688 71.8369 218.879 72.4088 219.026 72.9907ZM160.936 85.2657C161.938 80.6659 166.613 71.8183 167.718 70.1155C168.918 65.8988 162.374 62.5173 165.932 59.2201C167.544 57.7324 169.674 57.2058 171.672 56.6783C185.503 53.015 200.364 54.8624 213.193 61.5989C215.144 61.1461 217.177 62.0311 218.596 63.5855C225.263 70.9748 216.178 84.3074 214.191 92.6379C210.782 101.927 217.804 103.489 217.051 111.349C216.466 115.409 212.737 116.482 209.59 117.095C209.086 117.225 208.411 117.245 208.248 117.833C207.738 121.265 205.991 124.535 203.643 126.756C203.849 127.426 203.693 128.24 202.969 128.828C196.412 134.202 188.145 136.891 179.967 136.407C170.222 135.832 165.182 129.671 163.966 128.085C157.242 118.071 158.045 104.858 159.417 92.9237C160.373 84.6099 159.161 93.4143 160.936 85.2657Z" fill="#D08B5B"/>
<path fill-rule="evenodd" clip-rule="evenodd" d="M190.986 46.9903C190.68 45.9343 189.813 45.2993 188.82 45.4304C187.941 45.5449 187 46.5066 187.108 47.5681C187.127 47.773 187.154 47.965 187.186 48.1459L187.182 48.1476L187.178 48.1478L187.2 48.2179C187.265 48.5558 187.355 48.8585 187.489 49.1446C187.66 49.6929 187.824 50.2431 187.987 50.795C187.752 50.7839 187.513 50.7987 187.27 50.8486C187.019 50.1397 186.766 49.4326 186.515 48.7219C186.245 47.9632 186.056 46.9885 185.524 46.4015C184.843 45.6519 183.661 45.4968 182.83 46.0322C181.954 46.5971 181.641 47.6013 181.831 48.6776C181.928 49.2266 182.261 49.6086 182.672 49.8486L182.717 49.8739L183.033 50.7009C182.936 50.6548 182.836 50.6123 182.727 50.5772C182.556 50.5218 182.389 50.4867 182.224 50.4719C181.773 49.5692 181.276 48.6924 180.762 47.8321C180.171 46.8426 179.016 46.4217 178.046 47.0476C177.179 47.6069 176.714 49.0763 177.335 50.0419C177.807 50.7748 178.254 51.5224 178.694 52.2774C178.619 52.2921 178.543 52.3107 178.472 52.3347C178.438 52.2848 178.403 52.2349 178.366 52.1851C177.886 51.528 177.327 51.0351 176.753 50.4886C176.215 49.9754 175.967 49.1687 175.261 48.7792C174.372 48.29 173.3 48.5244 172.772 49.4991C171.637 51.587 173.542 53.1118 174.761 54.3764C173.701 53.6472 172.598 52.9808 171.466 52.4048C170.83 52.0817 170.184 51.7697 169.527 51.5003C168.555 51.1014 167.768 51.2291 166.97 51.971C166.613 52.3032 166.436 53.0289 166.6 53.5124C166.918 54.4392 167.42 55.0022 168.3 55.2698C168.92 55.4582 169.554 55.5855 170.174 55.7831C171.211 56.1117 172.22 56.5122 173.197 57.0126C173.127 57.0605 173.06 57.1122 172.998 57.1713C172.268 56.911 171.525 56.6858 170.778 56.4938C169.54 56.1736 168.28 55.9572 167.014 55.8219L166.593 55.7788C165.076 55.6182 163.251 55.3218 162.319 56.9239C162.013 57.4519 161.98 58.3233 162.319 58.8457C162.969 59.8499 163.615 60.0493 164.69 60.0677C163.632 60.1914 162.576 60.3446 161.524 60.5238C160.8 60.6455 160.075 60.7837 159.354 60.9369L158.993 61.0148C158.115 61.2086 157.133 61.3212 156.378 61.8824C154.732 63.1082 155.505 65.4951 157.33 65.7499C158.212 65.8718 159.191 65.4601 160.056 65.2681C160.897 65.0816 161.74 64.9173 162.588 64.7733C163.026 64.6977 163.465 64.6312 163.905 64.5703C163.009 64.7124 162.121 64.9137 161.255 65.1979L161.015 65.2779C159.342 65.8402 157.083 66.7359 156.561 68.7073C156.245 69.9054 157.11 70.9502 158.158 71.0204C159.132 71.085 159.944 70.4444 160.771 69.9719C161.373 69.6285 161.986 69.3719 162.636 69.1522C163.307 68.9251 163.992 68.7368 164.681 68.5836C164.099 68.9377 163.531 69.3269 162.986 69.7623L162.736 69.9664C161.288 71.1564 159.079 72.9987 159.589 75.2294C159.75 75.9328 160.461 76.6047 161.145 76.5327C162.922 76.3499 163.903 74.262 165.244 73.1434C165.594 72.8516 165.977 72.5637 166.379 72.2831C164.347 74.9562 162.73 78.0464 161.499 81.2383C158.795 88.2603 157.966 94.7632 157.946 102.314V102.547C157.942 106.712 158.027 110.952 158.396 115.098C158.737 118.929 159.363 122.71 160.938 126.179C163.578 131.995 168.722 136.526 174.395 138.25C180.708 140.17 187.763 138.669 192.935 134.239C194.254 133.108 192.504 130.656 191.157 131.699C185.775 135.861 178.815 137.179 172.638 134.363C167.738 132.128 163.793 127.323 162.121 121.791C161.056 118.271 160.746 114.518 160.367 110.85L160.341 110.605C159.939 106.769 159.707 102.908 159.71 99.0453C159.715 91.8734 160.649 85.9697 163.509 79.4642C164.855 76.3998 166.601 73.5663 168.687 71.0795C169.32 71.2216 169.993 71.0222 170.633 70.9466C170.959 70.9078 171.285 70.8708 171.612 70.8376C171.278 71.0754 170.951 71.3227 170.63 71.5756L170.209 71.9109C168.889 72.9529 167.215 74.1397 167.554 76.1543C167.646 76.6989 168.138 77.1991 168.616 77.3228C170.344 77.777 171.533 75.9235 172.702 74.8233C173.717 73.867 174.78 73.0104 175.863 72.152C176.11 71.9582 176.357 71.7644 176.607 71.5724C176.372 71.8736 176.145 72.1796 175.922 72.4885L175.594 72.948C174.599 74.3205 173.165 76.1047 174.051 77.884C174.302 78.3861 174.838 78.7203 175.356 78.7092C177.141 78.6686 177.851 76.4348 178.688 75.0245C179.407 73.8153 180.189 72.6763 180.998 71.5373C181.22 71.2253 181.445 70.9134 181.673 70.6014C185.42 70.8154 189.155 71.3619 192.824 72.2351C195.345 72.8351 197.824 73.6124 200.285 74.4633L200.489 74.5351C201.821 75.0079 203.194 75.6131 204.153 76.6508C204.291 77.3658 204.185 78.1199 204.054 78.834L203.952 79.3806C203.531 81.6661 203.244 83.9093 203.459 86.2559C203.681 88.6761 204.342 90.8525 205.149 93.101C205.531 94.1607 205.927 93.9687 206.062 95.1058C206.166 95.972 206.101 96.8662 206.031 97.7397L205.971 98.4801C205.823 100.42 205.748 102.535 206.901 104.135C207.079 104.38 207.463 104.282 207.59 104.037C207.64 103.939 207.694 103.845 207.753 103.755C208.309 102.867 209.161 102.361 210.135 102.165C210.259 102.141 210.21 101.958 210.106 101.943C209.283 101.837 208.502 102.064 207.839 102.533C208.154 101.334 210.587 101.917 211.388 102.149L211.415 102.157C212.413 102.453 213.357 102.933 214.189 103.613C215.863 104.979 216.83 107.109 216.782 109.404C216.733 111.66 215.677 113.744 213.862 114.823C212.987 115.344 211.991 115.595 211 115.584C209.966 115.573 209.045 115.073 208.008 115.143C207.409 115.183 206.951 115.892 207.297 116.511C207.528 116.924 207.83 117.249 208.178 117.499C207.329 119.656 206.246 121.715 204.998 123.615C204.306 124.669 203.522 125.641 202.66 126.529C201.987 127.224 200.53 128.027 200.611 129.184C200.64 129.601 200.835 129.856 201.181 130.011C202.253 130.494 203.556 128.83 204.273 128.027L204.331 127.964C205.225 126.982 206.04 125.896 206.75 124.744C208.008 122.698 208.791 120.393 209.114 117.971C210.833 118.542 213.109 118.006 214.512 117.307C218.921 115.11 220.362 108.562 217.682 104.201C217.164 103.357 216.514 102.636 215.774 102.053C215.936 101.955 216.089 101.829 216.224 101.671C216.974 100.792 217.505 99.6453 218.031 98.5883L218.094 98.462C218.561 97.5315 219.002 96.5865 219.415 95.6269L219.569 95.2665C220.491 93.0789 221.3 92.1226 221.958 89.8225C222.59 87.6035 223.089 85.3421 223.412 83.0419L223.498 82.433C223.685 81.0984 223.862 79.6712 223.725 78.316C224.665 78.6538 225.609 78.8624 226.538 78.3548C227.15 78.0206 227.489 77.0459 227.279 76.3463C227.127 75.8312 226.872 75.427 226.549 75.1094C226.742 75.0024 226.923 74.8658 227.082 74.7144L227.221 74.5816C227.783 74.0423 227.823 73.0178 227.482 72.3422C227.448 72.2775 227.415 72.2111 227.383 72.1465C227.058 71.5059 226.387 71.0868 225.724 71.0979C225.617 71.0998 225.51 71.0998 225.401 71.0979C225.711 71.0222 226.014 70.9059 226.302 70.7103C227.601 69.8297 227.437 67.4428 225.865 67.0218C225.205 66.8465 224.477 66.9184 223.751 67.1067C223.777 67.0902 223.804 67.0736 223.831 67.055C224.38 66.684 224.84 65.9585 224.788 65.2146C224.731 64.3912 224.49 63.8042 223.831 63.3722C223.258 62.9993 222.448 62.9642 221.879 63.3722C221.385 63.7285 220.901 64.1217 220.436 64.5445C220.903 63.9112 221.308 63.2227 221.472 62.4917C221.675 61.5815 221.337 60.5901 220.593 60.1102C220.001 59.728 219.375 59.7705 218.816 60.0659C218.846 59.5878 218.74 59.1004 218.452 58.6685C217.863 57.7825 216.792 57.2728 215.86 57.9189C215.737 58.0038 215.573 58.1497 215.414 58.3288C215.724 57.2415 215.444 56.1006 214.388 55.6095C213.744 55.3086 212.871 55.46 212.312 55.9787C212.667 53.8613 209.833 52.3051 208.732 54.4926C208.482 54.9882 208.235 55.51 208.013 56.0439L207.931 56.2446L207.923 56.2409L207.98 56.0941L208.037 55.9474C208.344 55.1628 208.733 54.3469 208.841 53.4958C208.998 52.2368 208.489 51.0424 207.247 50.8578C206.606 50.7618 205.892 51.083 205.463 51.6444C205.695 49.6911 203.717 48.2714 202.292 49.7299C201.617 50.4203 201.258 51.43 200.829 52.3162C200.586 52.8165 200.338 53.3149 200.096 53.817C200.034 53.7358 199.967 53.6546 199.897 53.5752C200.256 52.3863 200.536 51.1679 200.772 49.9422C200.996 48.7865 200.472 47.5866 199.391 47.2601C198.409 46.9608 197.178 47.6293 196.959 48.783C196.805 49.5951 196.622 50.3983 196.421 51.1974C196.284 51.1606 196.148 51.1347 196.015 51.1162C196.004 50.9661 195.991 50.8151 195.977 50.665L195.924 50.1309C195.807 48.9108 195.689 47.518 195.11 46.4808C194.125 44.7086 191.597 45.4434 191.571 47.5386C191.556 48.6222 191.955 49.6967 192.094 50.7692C192.154 51.2362 192.19 51.7088 192.21 52.1814C191.94 50.6123 191.571 49.0634 191.142 47.5386C191.092 47.3558 191.038 47.1731 190.986 46.9903ZM212.794 107.5C210.576 107.122 208.548 108.486 207.235 110.397C206.995 110.746 207.153 111.239 207.368 111.532C207.524 111.748 207.734 111.774 207.97 111.807C208.241 111.846 208.584 111.604 208.702 111.343C209.548 109.483 211.057 108.307 212.794 107.583C212.826 107.57 212.836 107.507 212.794 107.5ZM209.72 74.1597L209.653 74.0803C209.204 73.5668 209.913 72.7826 210.364 73.2971C210.837 73.8387 211.152 74.4967 211.454 75.1635C211.743 75.7993 210.876 76.3608 210.587 75.7227L210.455 75.4326C210.248 74.9816 210.028 74.536 209.72 74.1597ZM215.948 73.1061C215.312 72.9879 215.582 71.9204 216.215 72.0381C217.036 72.1906 217.853 72.3639 218.674 72.5166C219.31 72.6348 219.04 73.7023 218.407 73.5847C217.586 73.4321 216.769 73.2587 215.948 73.1061ZM178.056 65.8176C178.67 65.5915 178.934 66.6608 178.323 66.8857C177.478 67.1964 176.64 67.5148 175.839 67.9463C175.261 68.2579 174.751 67.3029 175.332 66.9898C176.212 66.5163 177.128 66.1587 178.056 65.8176ZM216.094 64.3823C216.694 64.1175 216.954 65.1885 216.361 65.4504L214.191 66.4072C213.591 66.6719 213.33 65.6012 213.924 65.3392L216.094 64.3823ZM170.48 61.7815L170.559 61.7263C171.103 61.3376 171.608 62.296 171.067 62.6828C170.749 62.9097 170.363 63.0636 170.072 63.3339L170.012 63.3937C169.542 63.8829 168.83 63.1012 169.301 62.6105C169.646 62.2516 170.082 62.0519 170.48 61.7815Z" fill="black"/>
<path fill-rule="evenodd" clip-rule="evenodd" d="M186.291 121.057C184.949 118.103 172.638 119.431 172.638 119.431L171.598 128.82C171.598 128.82 177.538 130.921 181.074 130.48C184.61 130.04 187.634 124.01 186.291 121.057Z" fill="white"/>
<path fill-rule="evenodd" clip-rule="evenodd" d="M185.424 125.989C185.849 124.987 177.048 122.256 174.323 124.122C171.598 125.989 172.45 128.533 172.45 128.533C172.45 128.533 183.911 131.41 185.424 125.989Z" fill="#FF8181"/>
<path fill-rule="evenodd" clip-rule="evenodd" d="M187.055 119.309C185 116.682 181.541 116.5 178.675 117.156C176.835 117.577 175.045 118.28 173.176 118.54C172.304 118.662 171.422 118.698 170.543 118.681C169.68 118.663 168.816 118.472 167.956 118.507C167.823 118.512 167.773 118.703 167.887 118.781C169.068 119.578 170.658 119.834 172.052 119.991C172.047 120.104 172.041 120.215 172.027 120.309C171.989 120.559 171.954 120.808 171.926 121.061C171.863 121.629 171.792 122.196 171.722 122.764C171.582 123.881 171.538 125.033 171.294 126.131L171.251 126.314C171.195 126.544 171.181 126.752 171.2 126.94L171.144 126.912L170.964 126.817L170.847 126.756C170.419 126.537 170.01 126.377 169.506 126.431C169.123 126.471 168.801 126.759 168.798 127.21C168.789 129.232 171.265 129.883 172.682 130.27L173.098 130.382C174.901 130.866 176.742 131.291 178.596 131.392C181.572 131.554 184.917 130.651 186.864 127.994C188.68 125.515 189.014 121.814 187.055 119.309ZM173.539 127.806C173.851 124.762 177.251 124.594 178.23 126.525C178.664 123.833 185.084 126.292 184.582 126.827C182.679 128.855 179.791 129.038 177.309 128.662C176.044 128.472 174.78 128.161 173.539 127.806ZM177.312 119.826L178.167 119.69L178.503 119.64C180.623 119.327 183.006 119.166 184.748 120.661C185.384 121.207 185.743 121.918 185.876 122.683C184.228 122.415 182.573 122.209 180.913 122.038L180.461 121.993C179.422 121.89 178.384 121.78 177.347 121.667L176.61 121.585L175.873 121.501C175.613 121.47 173.866 121.373 173.537 121.438C173.502 121.113 173.456 120.41 173.382 120.094C174.624 120.14 175.86 120.039 177.094 119.859L177.312 119.826ZM173.377 106.216C172.111 107.064 170.181 109.039 171.543 111.14C173.147 112.993 175.457 110.869 176.595 109.908C177.65 109.164 178.836 111.079 177.856 111.948C169.633 118.648 166.295 106.438 172.737 105.221C173.446 105.086 173.709 105.954 173.377 106.216ZM171.11 109.786L171.05 109.749L171.029 109.736C170.994 109.711 171.016 109.714 171.097 109.744L171.158 109.769V109.816C171.142 109.805 171.125 109.797 171.11 109.786ZM187.334 102.258L187.335 102.217C187.332 101.039 186.709 98.3513 185.169 98.3513C184.207 98.3513 183.622 100.181 183.522 102.066L183.518 102.143C183.473 103.316 183.765 105.878 185.169 105.878C186.587 105.878 187.319 103.451 187.334 102.258ZM164.661 101.888V101.847C164.664 100.67 165.287 97.9821 166.827 97.9821C167.764 97.9821 168.343 99.7213 168.466 101.556L168.474 101.697C168.535 102.83 168.261 105.509 166.827 105.509C165.409 105.509 164.676 103.081 164.661 101.888ZM186.456 90.3252C185.199 90.1149 183.534 90.5144 182.948 91.9208C182.687 92.5473 182.997 93.2401 183.654 93.2748C185.245 93.3587 186.672 92.9691 188.067 94.1072C188.668 94.597 189.173 95.2754 189.597 95.9519L189.758 96.2094L189.89 96.4215C190.178 96.8872 190.451 97.3931 190.408 97.955C190.395 98.1213 190.55 98.2791 190.697 98.2725C191.612 98.2311 191.71 96.9687 191.59 96.2106C191.367 94.8035 190.747 93.4827 189.89 92.4188C188.989 91.3016 187.8 90.5502 186.456 90.3252ZM169.145 92.0329C168.279 91.4198 167.17 91.1843 166.155 91.2745C164.153 91.452 160.795 93.3246 161.237 96.0152C161.373 96.845 162.422 97.2829 163.04 96.8225C163.705 96.3275 163.867 95.5583 164.36 94.9115C164.755 94.3948 165.255 94.0209 165.791 93.7025C166.318 93.3884 166.929 93.198 167.529 93.1287L167.628 93.1182C167.988 93.0844 169.809 93.0935 169.541 93.8413C169.489 93.9877 169.688 94.1036 169.778 93.9929C170.336 93.3135 169.704 92.4283 169.145 92.0329Z" fill="black"/>
<path fill-rule="evenodd" clip-rule="evenodd" d="M68.2791 143.115C71.3861 140.627 72.9265 136.552 74.0858 135.859C74.9393 135.349 74.9235 131.828 76.633 130.581C78.9277 128.909 86.2382 127.665 88.8982 127.433C91.4509 127.21 95.8919 127.678 98.2874 128.707C102.281 130.422 103.875 133.695 105.634 137.911C105.634 137.911 66.144 144.826 68.2791 143.115Z" fill="#D08B5B"/>
<path fill-rule="evenodd" clip-rule="evenodd" d="M126.224 146.023H63.0894L41.2365 167.418L31.5368 257.34L45.3329 262.068L130.576 263.636L157.198 255.353L158.859 192.759L126.224 146.023Z" fill="#78E185"/>
<path fill-rule="evenodd" clip-rule="evenodd" d="M40.4139 241.005C40.8538 240.764 41.3127 240.487 41.8145 240.467C42.6776 240.434 42.6784 238.957 41.8145 238.99C41.0618 239.02 40.3996 239.365 39.7366 239.729C38.9632 240.155 39.6437 241.428 40.4139 241.005ZM41.8153 199.435C41.2262 199.436 40.633 199.517 40.1812 199.971C39.9121 200.24 39.9335 200.742 40.1812 201.014C40.4457 201.306 40.8625 201.283 41.1301 201.014C41.0428 201.102 41.1293 201.015 41.1611 200.996C41.1682 200.992 41.173 200.988 41.1746 200.986C41.1817 200.985 41.1881 200.983 41.1992 200.98C41.269 200.96 41.3381 200.942 41.4096 200.928C41.4104 200.931 41.5589 200.916 41.5938 200.916C41.6676 200.912 41.7415 200.912 41.8153 200.912C42.179 200.911 42.4863 200.574 42.4863 200.173C42.4863 199.775 42.1774 199.435 41.8153 199.435ZM48.1246 216.001C48.3167 216.929 49.6102 216.533 49.4188 215.608C49.1401 214.263 49.191 212.885 49.4188 211.534C49.576 210.604 48.2826 210.209 48.1246 211.142C47.8514 212.761 47.7903 214.387 48.1246 216.001ZM49.8198 162.925C50.8187 162.663 51.8072 162.633 52.8299 162.632C53.6946 162.632 53.6938 161.155 52.8299 161.155C51.6897 161.156 50.5765 161.21 49.4625 161.501C48.6217 161.721 48.9798 163.144 49.8198 162.925ZM53.169 198.897C53.7486 198.578 54.3282 198.259 54.9079 197.94C55.6812 197.514 55.0008 196.241 54.2306 196.664L52.4917 197.622C51.7183 198.047 52.3988 199.321 53.169 198.897ZM53.4096 227.98C54.1448 229.147 55.1786 229.872 56.4197 230.233C57.2566 230.478 57.6107 229.052 56.7762 228.809C55.8893 228.55 55.1008 228.079 54.5688 227.235C54.0789 226.458 52.9165 227.197 53.4096 227.98ZM58.0474 175.984C58.2459 175.574 58.5453 175.401 58.9177 175.392C59.7808 175.37 59.7808 173.893 58.9177 173.915C58.0704 173.936 57.2931 174.404 56.8882 175.238C56.4808 176.076 57.6401 176.822 58.0474 175.984ZM66.5593 186.021C66.7999 186.31 67.2667 186.303 67.5081 186.021C67.6566 185.849 67.7813 185.657 67.8789 185.447C67.9163 185.367 67.9512 185.285 67.9925 185.208C68.0107 185.173 68.0306 185.139 68.0512 185.106C68.0584 185.099 68.0735 185.082 68.0886 185.065C68.3458 184.765 68.3395 184.322 68.0886 184.02C67.848 183.732 67.3811 183.739 67.1389 184.02C66.9912 184.192 66.8666 184.385 66.7689 184.595C66.7316 184.675 66.6966 184.757 66.6554 184.834C66.6371 184.869 66.6164 184.903 66.5958 184.937C66.5887 184.944 66.5744 184.96 66.5593 184.978C66.3012 185.277 66.3084 185.72 66.5593 186.021ZM67.2747 207.829C68.1489 208.269 69.1073 208.269 69.9815 207.829C70.3126 207.662 70.3904 207.136 70.2221 206.818C70.0259 206.451 69.6329 206.388 69.3042 206.554C68.9072 206.754 68.3482 206.753 67.952 206.554C67.6209 206.387 67.2318 206.446 67.0341 206.818C66.8642 207.138 66.9452 207.663 67.2747 207.829ZM69.6591 223.265C69.8092 223.656 70.1331 223.864 70.5127 223.88C70.8883 223.895 71.1677 223.529 71.1836 223.142C71.1932 222.891 71.0709 222.677 70.8938 222.544C70.8938 222.531 70.893 222.517 70.893 222.503C70.893 222.089 70.5857 221.782 70.2221 221.765C69.86 221.747 69.5511 222.117 69.5511 222.503C69.5519 222.764 69.5662 223.023 69.6591 223.265ZM73.121 247.805C74.1922 247.824 75.2387 248.104 76.3098 248.123C77.1753 248.139 77.1721 246.662 76.3098 246.646C75.2387 246.627 74.1922 246.347 73.121 246.327C72.2555 246.312 72.2587 247.789 73.121 247.805ZM77.5739 153.165C78.2011 153.822 78.9753 154.146 79.7392 154.557C80.5125 154.973 81.1922 153.698 80.4165 153.282C79.7693 152.933 79.0531 152.676 78.5227 152.121C77.897 151.465 76.9474 152.508 77.5739 153.165ZM79.2572 170.187C79.6971 169.945 80.1552 169.669 80.6578 169.65C81.5201 169.617 81.5217 168.14 80.6578 168.173C79.9043 168.202 79.2429 168.548 78.5799 168.912C77.8057 169.338 78.4862 170.61 79.2572 170.187ZM87.3244 238.507C87.5229 238.098 87.8222 237.925 88.1938 237.915C89.0577 237.894 89.0585 236.417 88.1938 236.439C87.3466 236.46 86.5701 236.928 86.1651 237.762C85.7578 238.6 86.9171 239.345 87.3244 238.507ZM90.1185 206.438C90.3853 206.168 90.3671 205.666 90.1185 205.393C89.8287 205.074 89.5389 204.755 89.2483 204.437C88.9831 204.145 88.5678 204.166 88.2994 204.437C88.0327 204.706 88.0509 205.207 88.2994 205.48C88.5901 205.8 88.8791 206.119 89.1697 206.438C89.4349 206.729 89.8502 206.708 90.1185 206.438ZM93.4121 256.418C94.38 256.392 95.2876 256.087 96.1991 255.753C97.0162 255.454 96.6636 254.028 95.8426 254.329C95.0502 254.619 94.2546 254.919 93.4121 254.941C92.5482 254.962 92.5482 256.44 93.4121 256.418ZM97.7602 224.837C98.6352 224.81 99.3601 224.32 99.9739 223.663C100.595 222.999 99.6444 221.956 99.025 222.619C98.6741 222.995 98.2691 223.344 97.7602 223.36C96.8971 223.386 96.8963 224.863 97.7602 224.837ZM95.0597 184.224C95.0494 184.617 94.8985 185.038 94.677 185.296C94.0839 185.987 95.0311 187.033 95.6258 186.341C96.1158 185.77 96.3818 185.005 96.4024 184.224C96.427 183.271 95.0843 183.275 95.0597 184.224ZM105.296 152.059C105.577 151.454 105.945 150.744 106.505 150.41C107.265 149.956 106.586 148.681 105.827 149.134C105.067 149.589 104.522 150.485 104.137 151.313C103.745 152.159 104.903 152.905 105.296 152.059ZM107.036 167.417C107.347 167.407 107.656 167.349 107.956 167.26C108.085 167.221 108.212 167.177 108.34 167.138C108.395 167.122 108.629 167.09 108.485 167.098C108.849 167.077 109.156 166.777 109.156 166.36C109.156 165.976 108.847 165.6 108.485 165.621C107.987 165.651 107.534 165.925 107.036 165.941C106.173 165.967 106.172 167.444 107.036 167.417ZM111.384 191.023H112.833C113.698 191.023 113.697 189.546 112.833 189.546H111.384C110.519 189.546 110.521 191.023 111.384 191.023ZM113.075 256.316C113.514 256.558 114.032 256.788 114.388 257.158C115.016 257.811 115.966 256.768 115.337 256.114C114.884 255.642 114.304 255.345 113.752 255.041C113.427 254.862 113.027 254.943 112.834 255.307C112.66 255.634 112.751 256.138 113.075 256.316ZM116.313 237.657C116.369 237.639 116.428 237.628 116.485 237.619C116.713 237.585 116.952 237.597 117.181 237.596C118.046 237.596 118.045 236.119 117.181 236.119C116.501 236.12 115.792 236.131 115.257 236.655C114.986 236.921 115.012 237.43 115.257 237.7C115.524 237.993 115.936 237.965 116.206 237.7C116.178 237.727 116.275 237.668 116.313 237.657ZM117.181 212.561C116.986 212.119 116.983 211.83 116.983 211.339C116.982 210.387 115.64 210.388 115.641 211.339C115.641 212.052 115.738 212.66 116.022 213.306C116.181 213.666 116.646 213.761 116.94 213.571C117.27 213.359 117.339 212.92 117.181 212.561ZM121.061 177.917C121.84 178.209 122.535 178.621 123.22 179.119C123.944 179.644 124.615 178.366 123.897 177.844C123.115 177.276 122.306 176.826 121.418 176.494C120.597 176.186 120.248 177.614 121.061 177.917ZM125.588 153.062C126.166 153.08 126.763 153.324 127.278 153.6C128.053 154.014 128.732 152.739 127.955 152.324C127.219 151.93 126.414 151.611 125.588 151.585C124.722 151.558 124.726 153.035 125.588 153.062ZM127.617 219.414C127.844 219.425 128.039 219.29 128.159 219.095C128.172 219.095 128.184 219.095 128.197 219.095C128.573 219.095 128.851 218.757 128.868 218.356C128.884 217.958 128.548 217.618 128.197 217.618C127.96 217.618 127.725 217.634 127.505 217.736C127.149 217.901 126.96 218.258 126.946 218.676C126.932 219.089 127.265 219.396 127.617 219.414ZM130.917 168.348C131.741 168.644 132.091 167.218 131.274 166.924C130.314 166.579 129.334 166.312 128.375 165.967C127.55 165.67 127.201 167.097 128.018 167.391C128.977 167.736 129.958 168.003 130.917 168.348ZM133.926 196.223C134.182 197.129 135.477 196.74 135.221 195.83C134.973 194.952 134.955 194.068 134.955 193.156C134.954 192.204 133.612 192.206 133.613 193.156C133.613 194.194 133.645 195.223 133.926 196.223ZM142.899 229.61C142.948 229.977 143.213 230.243 143.56 230.259C143.913 230.277 144.243 229.907 144.231 229.521C144.206 228.778 143.655 228.172 142.98 228.145C142.604 228.13 142.325 228.495 142.309 228.884C142.294 229.26 142.58 229.555 142.899 229.61ZM147.44 187.169C148.149 187.429 148.907 187.677 149.462 188.255C150.091 188.907 151.041 187.864 150.411 187.21C149.678 186.449 148.735 186.09 147.796 185.745C146.974 185.442 146.625 186.87 147.44 187.169ZM150.517 215.858C150.712 216.225 151.107 216.291 151.435 216.122C151.875 215.898 152.361 215.905 152.836 215.905C153.7 215.904 153.699 214.427 152.836 214.428C152.104 214.429 151.428 214.505 150.758 214.847C150.428 215.017 150.347 215.539 150.517 215.858ZM152.256 250.676C152.631 250.69 152.911 250.325 152.927 249.937C152.942 249.56 152.656 249.266 152.336 249.211C152.288 248.843 152.023 248.578 151.676 248.561C151.323 248.543 150.992 248.912 151.005 249.299C151.03 250.042 151.58 250.648 152.256 250.676ZM29.9956 256.26C30.2235 255.356 30.7451 254.627 31.139 253.816C31.2716 253.541 31.3176 253.371 31.3891 253.171C31.486 253.385 31.6749 253.547 31.9592 253.547C32.5039 253.547 33.1415 253.508 33.6497 253.765C33.9808 253.931 34.3698 253.872 34.5676 253.499C34.7375 253.18 34.6565 252.656 34.327 252.49C33.5774 252.112 32.7723 252.07 31.9592 252.07C31.7583 252.07 31.6067 252.151 31.4995 252.273C31.1882 247.591 31.1962 242.906 31.4899 238.222C31.8036 233.215 32.5253 228.308 33.2796 223.366C33.6457 220.97 34.1205 218.55 34.0276 216.109C33.9355 213.686 32.9914 211.426 33.6608 208.995C33.9292 208.02 34.3889 207.127 34.6875 206.163C35.0074 205.126 34.9789 204.101 34.8327 203.027C34.5326 200.839 34.0348 198.677 34.832 196.541C35.1837 195.595 35.7546 194.749 36.0293 193.771C36.3716 192.554 36.3247 191.208 36.3811 189.948C36.497 187.403 36.5272 184.843 36.7185 182.305C36.8043 181.168 36.9901 180.09 37.4149 179.046C37.8222 178.042 38.4281 177.129 38.698 176.063C38.9664 175.015 38.9902 173.909 39.1339 172.837C39.2848 171.703 39.5214 170.586 39.8406 169.496C41.0713 165.28 43.3279 161.492 45.9935 158.208C48.8265 154.718 52.2138 152.088 55.8083 149.638C57.6988 148.351 59.5894 147.063 61.4784 145.774C61.5181 146.016 61.6586 146.238 61.9278 146.337C62.6368 146.598 63.3943 146.845 63.9501 147.423C64.5782 148.075 65.5286 147.033 64.899 146.379C64.2423 145.697 63.4174 145.338 62.5781 145.022C63.4388 144.425 64.3082 143.806 65.2801 143.462C66.1305 143.159 67.385 143.423 68.0743 142.736C68.6166 142.196 68.7873 141.193 68.9953 140.458C69.2558 139.547 69.4805 138.585 69.8108 137.698C70.0355 137.093 70.3626 136.511 70.7755 136.042C70.9565 135.274 71.2884 134.573 71.876 134.147C73.4124 133.028 75.2998 134.139 75.9755 135.734C76.5337 135.732 77.1229 135.868 77.6668 135.904C78.784 135.982 79.9027 136.017 81.0215 136.013C83.2106 136.006 85.4013 135.849 87.5721 135.53C91.4541 134.957 95.2201 133.804 99.0361 132.904C99.0576 132.849 99.083 132.794 99.1132 132.738C99.935 131.221 101.984 131.478 103.274 132.051C103.827 132.297 104.391 132.607 104.708 133.183C105.043 133.432 105.333 133.735 105.526 134.054C105.926 134.714 106.234 136.042 107.045 136.153C107.578 136.226 108.12 136.113 108.661 136.198C109.339 136.301 109.947 136.563 110.572 136.862C115.336 139.139 120.261 141.669 125.432 142.552C126.644 142.758 127.879 142.973 128.932 143.72C129.788 144.328 130.449 145.162 131.155 145.954C131.843 146.725 132.41 147.067 133.391 147.206C134.582 147.374 135.614 147.735 136.485 148.688C137.208 149.48 137.679 150.492 138.246 151.411C138.823 152.349 139.67 152.876 140.549 153.421C142.628 154.71 144.563 156.266 146.249 158.133C149.801 162.069 151.951 167.127 154.118 172.056C156.462 177.386 158.653 182.783 160.173 188.476C161.662 194.066 162.548 199.816 162.957 205.62C163.388 211.711 163.449 217.825 163.808 223.918C163.987 226.963 164.123 230.01 164.261 233.056C164.395 236.065 164.591 239.08 164.559 242.093C164.499 247.917 163.441 253.76 161.59 259.213C161.129 260.57 160.617 261.908 160.072 263.226C159.594 264.384 157.958 264.254 157.445 263.226C157.328 262.99 157.235 262.747 157.158 262.499C155.816 262.512 154.461 262.397 153.127 262.534C150.772 262.776 148.412 262.911 146.05 263.072C141.376 263.39 136.694 263.603 132.019 263.896C131.566 263.925 131.112 263.954 130.658 263.984C133.99 252.635 133.558 240.366 134.085 228.564C134.128 227.613 132.785 227.618 132.743 228.564C132.214 240.417 132.665 252.717 129.215 264.084C127.877 264.184 126.54 264.305 125.208 264.483C124.132 264.626 123.05 264.794 121.962 264.735C120.729 264.67 119.525 264.36 118.322 264.09C116.136 263.601 114.031 263.823 111.837 264.123C109.49 264.446 107.135 264.626 104.773 264.738C95.3154 265.194 85.7935 265.61 76.3392 264.914C74.0516 264.746 71.768 264.509 69.4956 264.188C67.1532 263.858 64.8371 263.302 62.4971 262.986C60.1905 262.676 58.0696 263.528 55.79 263.684C53.4651 263.845 51.0783 263.311 48.7749 263.005C48.0237 262.905 47.271 262.807 46.5191 262.71C47.4878 255.404 48.038 248.044 48.5732 240.686C48.6423 239.737 47.2996 239.745 47.2313 240.686C46.7009 247.986 46.1618 255.293 45.1947 262.541C41.2071 262.03 37.2148 261.513 33.2677 260.718C32.1442 260.492 31.027 260.125 30.3545 259.021C29.8559 258.203 29.755 257.201 29.9956 256.26Z" fill="black"/>
<path fill-rule="evenodd" clip-rule="evenodd" d="M50.5109 92.4054C52.0425 83.1938 55.8197 74.4289 61.6207 67.571C62.2901 66.7567 62.892 65.4722 63.9131 65.2669C64.9381 62.9629 66.893 61.3341 68.4548 59.4734C71.8651 55.7239 75.1278 51.534 79.5258 49.1662C99.9265 39.9134 119.558 66.2964 123.724 86.1381C127.862 102.094 123.343 124.106 105.411 124.753C102.874 128.453 99.373 131.014 95.7777 133.301C90.8667 136.769 85.5103 138.176 79.8291 136.247C74.171 137.877 68.3064 132.645 64.9064 128.056C62.2186 124.502 60.3765 120.165 57.9182 116.486C55.0161 116.405 52.5086 113.696 52.1195 110.519C49.4088 105.026 49.5326 98.4431 50.5109 92.4054Z" fill="#D08B5B"/>
<path fill-rule="evenodd" clip-rule="evenodd" d="M123.724 86.1381C119.558 66.2964 99.9265 39.9134 79.5258 49.1662C75.1278 51.534 71.8652 55.7239 68.4548 59.4734C66.893 61.3341 64.9381 62.9629 63.9131 65.2669C62.892 65.4722 62.2901 66.7567 61.6208 67.571C55.8197 74.4289 52.0425 83.1938 50.5109 92.4054C49.5326 98.4431 49.4088 105.026 52.1196 110.519C52.5086 113.696 55.0161 116.405 57.9183 116.486C58.4502 117.281 58.9537 118.108 59.442 118.951L59.5579 118.995L59.5722 118.061C59.8167 102.931 60.6068 93.7975 61.9423 90.6612C63.2914 87.4928 69.0972 81.6915 79.3599 73.2573L79.6719 73.0009L82.0818 70.8069L83.9509 73.1346C90.9843 81.8841 96.49 88.6357 100.468 93.3894C104.749 98.5047 108.37 106.287 111.332 116.735L111.422 117.053L106.187 124.711C123.473 123.465 127.802 101.862 123.724 86.1381Z" fill="#9DDADB"/>
<path fill-rule="evenodd" clip-rule="evenodd" d="M94.9471 46.0311C91.2351 45.0747 87.342 45.2729 83.6657 46.324C76.3782 48.4077 70.3818 53.8261 65.4097 59.8673C60.5598 65.7599 56.5611 72.515 53.6399 79.7919L53.4922 80.1621C51.4262 85.3494 49.6301 90.7412 49.5531 96.453C49.4872 101.369 49.9374 106.49 51.3778 111.166C52.6601 115.331 55.0199 119.529 59.0798 120.527C61.4213 127.089 66.0012 132.772 71.7705 135.812C75.3484 137.699 79.2779 138.541 83.2345 138.122C87.2713 137.696 91.0413 135.557 94.1959 132.829C94.2825 132.755 94.1713 132.61 94.0816 132.665C90.2838 135.08 85.7921 135.943 81.4416 135.784C74.2923 135.523 67.7385 131.268 63.9725 124.579C63.0355 122.914 62.2002 121.159 61.534 119.331C61.573 119.181 61.596 119.029 61.596 118.881C61.596 118.251 61.3252 117.77 60.9211 117.459C60.7337 116.814 60.5677 116.161 60.4296 115.5C60.1151 114.005 59.9405 112.488 59.8349 110.958C59.7491 109.715 59.7967 108.397 59.6832 107.123C59.7245 106.102 59.7817 105.082 59.8658 104.064C60.1358 100.784 60.6821 97.512 61.7334 94.4206C62.7989 91.2893 64.4814 88.528 66.6046 86.1512C71.1583 81.0536 76.8276 77.3315 81.255 72.0948L81.4869 71.8177L81.5028 71.8121C82.0522 72.4333 82.6009 73.0545 83.152 73.6744L85.6674 76.5039C90.8015 82.2851 95.8935 88.1223 100.36 94.5554C102.932 98.2599 105.242 102.143 107.233 106.261C108.175 108.211 109.031 110.21 109.803 112.249L110.107 113.061C110.469 114.032 110.86 115.119 111.078 116.216C110.431 116.924 109.959 117.963 109.435 118.764C108.843 119.675 108.16 120.541 107.456 121.349C106.744 122.167 105.963 122.952 105.134 123.624L105.035 123.703C104.084 124.448 102.992 124.962 102.849 126.379C102.787 126.994 103.286 127.489 103.748 127.681C105.012 128.205 106.322 126.7 107.165 125.834C107.69 125.294 108.173 124.713 108.621 124.099C109.058 124.168 109.496 124.202 109.93 124.145C110.603 124.057 111.27 123.927 111.926 123.737C117.364 122.162 121.39 117.183 123.561 111.639C126.477 104.194 126.409 95.6128 125.197 87.7405C122.982 73.3542 115.814 59.919 104.99 51.4132C101.959 49.0312 98.5972 46.9715 94.9471 46.0311ZM89.0872 47.9557C96.0801 47.5493 102.455 51.5257 107.57 56.4755C116.883 65.488 122.619 78.6835 123.773 92.2342C124.386 99.4339 123.927 107.194 120.523 113.555C119.202 116.023 117.501 118.173 115.493 119.986C113.601 121.696 111.445 122.68 109.139 123.351C109.244 123.191 109.347 123.03 109.448 122.867C109.985 122.001 110.411 121.081 110.768 120.116C110.799 120.151 110.858 120.158 110.893 120.105C112.349 117.903 111.893 115.276 111.199 112.854C110.472 110.314 109.551 107.843 108.498 105.445C104.663 96.7078 98.9592 89.0964 93.0383 81.9938C90.0146 78.3664 86.891 74.8442 83.7784 71.3099C82.2237 69.5451 80.673 67.775 79.143 65.9848C78.3807 65.0935 77.624 64.1976 76.8737 63.2945C76.1313 62.4016 75.4643 61.4558 74.54 60.787C73.804 60.254 73.0687 61.2727 73.4133 62.0303C73.9421 63.1956 74.8529 64.1194 75.658 65.0669L75.7414 65.1651C76.5267 66.0999 77.3191 67.0272 78.1163 67.9495C79.0334 69.0103 79.9576 70.0638 80.885 71.1146C80.0942 71.0136 79.2938 70.9554 78.5077 70.8238C77.4406 70.6451 76.3877 70.3818 75.3404 70.0955C74.2367 69.7941 73.1465 69.4092 72.0945 68.9307C71.1067 68.4814 70.173 67.7614 69.0859 67.6909C68.1649 67.6311 67.8774 68.8876 68.388 69.5489C69.0907 70.4601 70.354 70.8187 71.3815 71.1571L71.5268 71.2053C72.663 71.5879 73.8254 71.8749 75.0014 72.0667C76.5481 72.3193 78.3354 72.4348 79.9902 72.1764C76.6855 74.3131 73.6452 76.961 70.6128 79.5434L70.0777 79.9983C67.1152 82.5119 64.2242 85.2215 62.1121 88.6606C60.1406 91.8711 58.9495 95.6088 58.2818 99.3963C57.9522 101.265 57.7347 103.152 57.5886 105.048C57.0447 106.73 57.132 108.728 57.2694 110.577L57.3178 111.215L57.3146 111.403C57.294 112.558 56.8724 115.133 57.8649 116.007C57.8816 116.099 57.8975 116.193 57.9149 116.286C57.7918 116.203 57.6696 116.116 57.5489 116.027C57.4989 115.99 57.4504 115.949 57.402 115.91L57.2646 115.786C57.2599 115.781 57.2551 115.776 57.2511 115.773C56.9438 115.475 56.6501 115.164 56.3761 114.827C55.8695 114.205 55.3884 113.414 54.9334 112.504C53.9321 110.503 53.2922 108.327 52.7975 106.078C51.8931 101.967 51.5199 97.5498 51.9328 93.3327C51.99 92.744 52.1083 92.006 52.2917 91.2487C52.7268 89.4506 53.2278 87.6717 53.7884 85.9166C54.9096 82.4056 56.284 78.9995 57.8871 75.7238C61.1426 69.0706 65.3302 62.9196 70.3484 57.7578C75.4309 52.5303 82.0213 48.3662 89.0872 47.9557ZM98.9481 69.2129C98.6964 69.043 98.4368 69.3729 98.5622 69.6391C99.1673 70.9275 100.185 72.0152 101.031 73.1191C101.907 74.2622 102.776 75.4116 103.643 76.5626C105.409 78.9062 107.132 81.2927 108.788 83.7325L109.224 84.3779C110.68 86.5323 112.118 88.7209 113.39 91.0099C114.055 92.2075 114.642 93.446 115.175 94.7214C115.682 95.9356 115.915 97.4012 116.525 98.5417C116.563 98.6137 116.682 98.6078 116.697 98.5168C116.896 97.2888 116.404 95.8097 116.053 94.6598C115.636 93.2923 115.042 91.9897 114.406 90.7316C113.08 88.1073 111.491 85.6473 109.895 83.2172C108.274 80.7496 106.591 78.3324 104.825 75.9882C103.995 74.8872 103.147 73.8082 102.273 72.7503L101.945 72.3546C101.03 71.2604 100.108 69.9938 98.9481 69.2129ZM103.188 65.3978C102.774 65.059 102.42 65.7513 102.684 66.1183C104.264 68.3103 106.062 70.2798 107.791 72.3242C109.451 74.2874 111.039 76.3242 112.537 78.4411C115.59 82.7577 118.035 87.4943 120.105 92.4586C120.144 92.5521 120.267 92.4823 120.249 92.3919C119.152 87.0223 116.588 82.1455 113.669 77.7391L113.558 77.572C110.605 73.1408 107.211 68.6866 103.188 65.3978Z" fill="black"/>
<path fill-rule="evenodd" clip-rule="evenodd" d="M88.2026 116.08C86.3708 114.866 79.5224 115.756 74.1429 116.08C69.8711 116.338 66.8197 115.828 65.8438 116.551C63.6373 118.185 64.7092 126.087 68.5109 127.168C72.3127 128.248 86.4057 129.758 88.8354 127.168C91.2651 124.578 91.4898 118.259 88.2026 116.08Z" fill="white"/>
<path fill-rule="evenodd" clip-rule="evenodd" d="M85.83 113.99C82.9541 113.606 80.1671 114.574 77.3555 115.064C75.8715 115.321 74.3851 115.513 72.8836 115.585C72.5811 115.599 72.2794 115.608 71.9768 115.615C71.9483 115.322 71.7998 115.053 71.4766 114.891C70.8152 114.562 70.2856 114.413 69.5599 114.445C68.8945 114.474 68.2275 114.549 67.5732 114.681C66.3838 114.92 65.1896 115.465 64.3201 116.41C62.3081 118.598 62.6138 122.113 64.1693 124.497C67.3819 129.421 73.2457 129.65 78.2678 129.586L78.7315 129.58C83.3043 129.507 89.8462 130.257 91.9233 124.533C92.688 122.427 92.5816 119.986 91.6462 117.967C90.5306 115.559 88.1819 114.305 85.83 113.99ZM71.5465 122.19L71.587 122.192C73.6951 122.281 75.8032 122.344 77.9129 122.385C77.8494 122.981 77.7851 123.577 77.7112 124.173C77.6541 124.64 77.5921 125.108 77.5278 125.575C77.5 125.773 77.4 126.08 77.4286 126.276L77.4389 126.353C77.3301 126.407 77.2317 126.494 77.1586 126.62C77.1332 126.664 77.1149 126.708 77.0967 126.751C75.4586 126.765 73.6967 126.73 72.0269 126.403L72.0237 126.363C71.9935 126.128 71.9046 125.97 71.7863 125.862C71.6696 125.114 71.6799 124.316 71.6346 123.574C71.606 123.112 71.5759 122.651 71.5465 122.19ZM79.524 122.416C81.0437 122.445 82.5635 122.467 84.0832 122.447L84.7724 122.435C84.6271 123.295 84.4683 124.152 84.3365 125.017C84.1991 125.92 84.9209 126.494 85.5458 126.47C85.4751 126.483 85.4053 126.496 85.3354 126.507C83.3837 126.811 81.3582 126.729 79.3779 126.728C79.4843 126.043 79.4414 125.271 79.4573 124.7L79.4605 124.611C79.4906 123.879 79.5121 123.148 79.524 122.416ZM89.8462 122.259C89.793 122.706 89.6906 123.144 89.5373 123.551C88.8886 125.273 87.4014 126.076 85.8277 126.414C86.1008 126.31 86.3176 126.061 86.3724 125.634C86.5089 124.573 86.5582 123.493 86.5613 122.415C87.6579 122.404 88.7624 122.379 89.8462 122.259ZM65.828 121.891C66.6085 122.094 67.5153 122.001 68.2815 122.04C68.9993 122.076 69.7171 122.106 70.4349 122.139C70.4007 122.677 70.3682 123.216 70.3324 123.755C70.2856 124.451 70.2816 125.188 70.1601 125.881C68.7158 125.339 67.4224 124.469 66.4513 123.078C66.2091 122.732 65.9923 122.325 65.828 121.891ZM86.1596 116.814C87.4594 117.153 88.6893 117.868 89.3507 119.177C89.743 119.954 89.9153 120.874 89.8819 121.781C88.7838 121.641 87.6666 121.587 86.5542 121.543C86.551 121.323 86.5463 121.103 86.5399 120.883L86.5232 120.32C86.4931 119.246 86.4772 117.898 86.1596 116.814ZM79.4327 116.945L80.0051 116.874C81.594 116.675 83.1828 116.466 84.7716 116.586C85.0019 116.603 85.2353 116.631 85.4688 116.669C85.1885 117.784 85.2115 119.095 85.0948 120.199C85.0487 120.626 84.9916 121.048 84.9281 121.47L84.6525 121.456C82.9478 121.355 81.2406 121.292 79.5343 121.218C79.5343 120.865 79.5327 120.512 79.5272 120.159L79.5208 119.806C79.5017 118.905 79.5549 117.889 79.4327 116.945ZM71.4528 116.802C73.1171 117.098 74.8377 117.161 76.4726 117.162C77.1253 117.163 77.7779 117.12 78.4298 117.056C78.3877 117.438 78.3655 117.825 78.3337 118.202C78.2694 118.964 78.1956 119.724 78.1154 120.483L78.0439 121.148C75.9469 121.044 73.8491 120.931 71.7521 120.814L71.456 120.796L71.3734 119.518C71.317 118.667 71.2551 117.815 71.1669 116.967L71.2329 116.941C71.3099 116.906 71.3837 116.858 71.4528 116.802ZM70.7302 117.12C70.6381 118.324 70.5881 119.534 70.5206 120.74L69.1382 120.659C68.9072 120.645 68.6769 120.631 68.4467 120.616C67.551 120.559 66.3997 120.261 65.5143 120.539C65.4461 119.654 65.6763 118.791 66.4028 118.195C67.6788 117.149 69.3034 117.521 70.7302 117.12ZM75.453 106.351C73.395 105.053 68.2299 103.727 67.9028 107.804C67.7519 109.68 69.0191 111.235 70.4992 111.929L70.5548 111.954C71.9435 112.582 74.4034 113.291 75.6047 111.93C76.6044 110.796 75.2784 108.763 74.0365 109.693C73.3981 110.17 72.0539 109.818 71.3416 109.59L71.2972 109.576C70.5278 109.328 69.5035 108.532 69.8211 107.491C70.1022 106.569 71.2996 106.401 72.0491 106.371C73.1679 106.326 74.2573 106.612 75.3657 106.705C75.542 106.72 75.596 106.44 75.453 106.351ZM66.9261 99.7946C64.1328 99.6505 62.3947 103.008 63.037 105.759C63.1482 106.234 63.6301 106.699 64.0962 106.646L64.213 106.634C64.2733 106.628 64.3329 106.62 64.3876 106.603C64.8299 106.468 65.2261 105.962 65.1944 105.437L65.1856 105.284C65.1205 103.985 65.2483 102.488 66.6522 102.173C67.8416 101.906 68.5062 103.167 68.5205 104.327C68.5229 104.533 68.7333 104.677 68.8992 104.566C69.7592 103.99 69.9084 102.844 69.5797 101.857C69.1637 100.606 68.1211 99.8558 66.9261 99.7946ZM87.6603 100.514C85.6268 99.7684 83.4337 100.961 82.4491 102.939C82.1037 103.049 81.7583 103.343 81.8068 103.791C81.8759 104.436 81.9799 104.843 82.3872 105.332C83.0232 106.098 84.2142 105.706 84.4786 104.764L84.4898 104.722C84.7899 103.503 86.0087 102.7 87.1187 103.126C88.4154 103.624 88.3773 105.131 89.2872 106.009C89.3936 106.112 89.5222 106.129 89.6501 106.061C90.6164 105.547 90.4425 104 90.0979 103.116C89.6469 101.955 88.7687 100.921 87.6603 100.514ZM90.4298 93.7199C88.7822 91.8699 84.4858 90.0795 83.3583 93.4961C83.1439 94.1468 83.6012 95.0242 84.2166 95.1591C85.225 95.3799 86.1191 94.8983 87.1203 94.9847C87.931 95.055 88.7766 95.3531 89.4254 95.9058C91.2206 97.4366 91.6153 100.026 92.8658 101.974C92.927 102.069 93.0453 102.029 93.0564 101.917C93.3414 99.0807 92.2346 95.7462 90.4298 93.7199ZM68.9421 91.8987C67.8488 91.4737 66.6101 91.5101 65.5112 91.887C64.4043 92.2669 63.388 92.9884 62.6043 93.931C62.2493 94.3589 61.9206 94.8311 61.657 95.3338C61.5165 95.6001 61.3696 96.1505 61.21 96.4781C60.3493 97.0254 59.9808 98.2725 60.7518 99.1596L60.7868 99.1985L60.89 99.3111C61.3045 99.7623 61.9294 99.958 62.4955 99.7781C63.7612 99.3745 63.9152 98.2774 64.3535 97.1124C64.6433 96.343 65.1388 95.6622 65.7406 95.1621C67.1619 93.9807 69.4924 93.6042 71.2035 94.161C71.2948 94.1907 71.402 94.0629 71.3369 93.9703C71.0121 93.508 70.8255 93.1287 70.3912 92.7558C69.9505 92.3773 69.4701 92.1039 68.9421 91.8987Z" fill="black"/>
</g>
</svg>
