<svg width="33" height="26" viewBox="0 0 33 26" fill="none" xmlns="http://www.w3.org/2000/svg">
<path d="M0 26L15.95 0H25.85V3.61739L12.1 26" fill="#FBBC04"/>
<path d="M25.85 26H15.95V0H25.85V26Z" fill="#1A73E8"/>
<path d="M33 18.6522C33 22.7104 29.799 26 25.85 26V11.3044C29.799 11.3044 33 14.5939 33 18.6522Z" fill="#34A853"/>
<path d="M25.85 26C21.901 26 18.7 22.7104 18.7 18.6522C18.7 14.5939 21.901 11.3044 25.85 11.3044V26Z" fill="#0D652D"/>
<path d="M31.35 5.65217C31.35 8.7733 28.8882 11.3043 25.85 11.3043V0C28.8882 0 31.35 2.53104 31.35 5.65217Z" fill="#1A73E8"/>
<path d="M25.85 11.3043C22.8118 11.3043 20.35 8.7733 20.35 5.65217C20.35 2.53104 22.8118 0 25.85 0V11.3043Z" fill="#174EA6"/>
<path d="M0.549988 5.08696C0.549988 2.27783 2.76649 0 5.49999 0C8.23349 0 10.45 2.27783 10.45 5.08696C10.45 7.89609 8.23349 10.1739 5.49999 10.1739C2.76649 10.1739 0.549988 7.89609 0.549988 5.08696Z" fill="#EA4335"/>
</svg>
