<svg width="24" height="24" viewBox="0 0 24 24" fill="none" xmlns="http://www.w3.org/2000/svg">
<path d="M3.00002 5.00001C2.86751 4.99813 2.73595 5.02262 2.61298 5.07203C2.49001 5.12144 2.37809 5.1948 2.28372 5.28785C2.18935 5.38089 2.11441 5.49177 2.06327 5.61402C2.01212 5.73628 1.98578 5.86748 1.98578 6.00001C1.98578 6.13253 2.01212 6.26374 2.06327 6.38599C2.11441 6.50825 2.18935 6.61912 2.28372 6.71217C2.37809 6.80521 2.49001 6.87857 2.61298 6.92799C2.73595 6.9774 2.86751 7.00188 3.00002 7.00001H21C21.1325 7.00188 21.2641 6.9774 21.3871 6.92799C21.51 6.87857 21.622 6.80521 21.7163 6.71217C21.8107 6.61912 21.8856 6.50825 21.9368 6.38599C21.9879 6.26374 22.0143 6.13253 22.0143 6.00001C22.0143 5.86748 21.9879 5.73628 21.9368 5.61402C21.8856 5.49177 21.8107 5.38089 21.7163 5.28785C21.622 5.1948 21.51 5.12144 21.3871 5.07203C21.2641 5.02262 21.1325 4.99813 21 5.00001H3.00002ZM3.00002 11C2.86751 10.9981 2.73595 11.0226 2.61298 11.072C2.49001 11.1214 2.37809 11.1948 2.28372 11.2878C2.18935 11.3809 2.11441 11.4918 2.06327 11.614C2.01212 11.7363 1.98578 11.8675 1.98578 12C1.98578 12.1325 2.01212 12.2637 2.06327 12.386C2.11441 12.5083 2.18935 12.6191 2.28372 12.7122C2.37809 12.8052 2.49001 12.8786 2.61298 12.928C2.73595 12.9774 2.86751 13.0019 3.00002 13H21C21.1325 13.0019 21.2641 12.9774 21.3871 12.928C21.51 12.8786 21.622 12.8052 21.7163 12.7122C21.8107 12.6191 21.8856 12.5083 21.9368 12.386C21.9879 12.2637 22.0143 12.1325 22.0143 12C22.0143 11.8675 21.9879 11.7363 21.9368 11.614C21.8856 11.4918 21.8107 11.3809 21.7163 11.2878C21.622 11.1948 21.51 11.1214 21.3871 11.072C21.2641 11.0226 21.1325 10.9981 21 11H3.00002ZM3.00002 17C2.86751 16.9981 2.73595 17.0226 2.61298 17.072C2.49001 17.1214 2.37809 17.1948 2.28372 17.2878C2.18935 17.3809 2.11441 17.4918 2.06327 17.614C2.01212 17.7363 1.98578 17.8675 1.98578 18C1.98578 18.1325 2.01212 18.2637 2.06327 18.386C2.11441 18.5083 2.18935 18.6191 2.28372 18.7122C2.37809 18.8052 2.49001 18.8786 2.61298 18.928C2.73595 18.9774 2.86751 19.0019 3.00002 19H21C21.1325 19.0019 21.2641 18.9774 21.3871 18.928C21.51 18.8786 21.622 18.8052 21.7163 18.7122C21.8107 18.6191 21.8856 18.5083 21.9368 18.386C21.9879 18.2637 22.0143 18.1325 22.0143 18C22.0143 17.8675 21.9879 17.7363 21.9368 17.614C21.8856 17.4918 21.8107 17.3809 21.7163 17.2878C21.622 17.1948 21.51 17.1214 21.3871 17.072C21.2641 17.0226 21.1325 16.9981 21 17H3.00002Z" fill="black"/>
</svg>
