<svg width="24" height="24" viewBox="0 0 24 24" fill="none" xmlns="http://www.w3.org/2000/svg">
<path d="M12.0001 0C5.3735 0 0 5.50845 0 12.3038C0 17.74 3.4384 22.3519 8.2064 23.9788C8.80615 24.0927 9.0263 23.712 9.0263 23.3869C9.0263 23.0936 9.0152 22.1244 9.01 21.0963C5.67155 21.8406 4.96712 19.6446 4.96712 19.6446C4.42125 18.2224 3.63473 17.8442 3.63473 17.8442C2.54596 17.0807 3.71679 17.0963 3.71679 17.0963C4.92181 17.1831 5.5563 18.3643 5.5563 18.3643C6.6266 20.2452 8.3636 19.7014 9.04835 19.3871C9.15605 18.5918 9.46705 18.049 9.81025 17.7418C7.14485 17.4307 4.34295 16.3756 4.34295 11.6612C4.34295 10.3179 4.81173 9.2203 5.57935 8.3587C5.45475 8.0488 5.044 6.79735 5.6956 5.1026C5.6956 5.1026 6.7033 4.77193 8.9965 6.3638C9.9537 6.0912 10.9803 5.95445 12.0001 5.9498C13.0199 5.95445 14.0473 6.0912 15.0063 6.3638C17.2967 4.77193 18.303 5.1026 18.303 5.1026C18.9562 6.79735 18.5452 8.0488 18.4207 8.3587C19.1901 9.2203 19.6556 10.3179 19.6556 11.6612C19.6556 16.3869 16.8484 17.4274 14.1763 17.732C14.6067 18.1138 14.9902 18.8626 14.9902 20.0105C14.9902 21.6567 14.9763 22.9817 14.9763 23.3869C14.9763 23.7144 15.1923 24.098 15.8006 23.9772C20.566 22.3485 24 17.7381 24 12.3038C24 5.50845 18.6273 0 12.0001 0Z" fill="black"/>
<path d="M4.58043 17.5812C4.55405 17.6417 4.46043 17.6598 4.37514 17.6183C4.28826 17.5785 4.23947 17.496 4.26763 17.4353C4.29342 17.373 4.38724 17.3556 4.47391 17.3974C4.56099 17.4371 4.61058 17.5204 4.58043 17.5812Z" fill="#161514"/>
<path d="M5.0656 18.1315C5.00845 18.1854 4.89679 18.1604 4.82102 18.0752C4.74267 17.9903 4.728 17.8767 4.78591 17.8221C4.84482 17.7682 4.95312 17.7934 5.03165 17.8783C5.11 17.9643 5.1253 18.0771 5.0656 18.1315Z" fill="#161514"/>
<path d="M5.53786 18.8332C5.46446 18.885 5.34446 18.8364 5.27031 18.7281C5.19691 18.6197 5.19691 18.4898 5.27186 18.4378C5.34626 18.3857 5.46446 18.4325 5.53966 18.5401C5.61286 18.6502 5.61286 18.7801 5.53786 18.8332Z" fill="#161514"/>
<path d="M6.18486 19.511C6.11921 19.5846 5.97941 19.5649 5.87706 19.4644C5.77231 19.3661 5.74316 19.2267 5.80901 19.1531C5.87546 19.0793 6.01606 19.1001 6.11921 19.1997C6.22316 19.2978 6.25491 19.4382 6.18486 19.511Z" fill="#161514"/>
<path d="M7.07742 19.9046C7.04847 20 6.91382 20.0434 6.77812 20.0028C6.64267 19.9611 6.55402 19.8493 6.58137 19.7529C6.60952 19.6569 6.74482 19.6117 6.88147 19.655C7.01672 19.6966 7.10562 19.8076 7.07742 19.9046Z" fill="#161514"/>
<path d="M8.05767 19.9776C8.06102 20.0781 7.94602 20.1614 7.80357 20.1632C7.66037 20.1665 7.54452 20.0852 7.54297 19.9863C7.54297 19.8848 7.65542 19.8023 7.79862 19.7999C7.94102 19.7971 8.05767 19.8778 8.05767 19.9776Z" fill="#161514"/>
<path d="M8.96984 19.8196C8.98689 19.9176 8.88794 20.0183 8.74649 20.0452C8.60744 20.071 8.47874 20.0105 8.46109 19.9132C8.44384 19.8128 8.54459 19.7121 8.68344 19.6861C8.82504 19.6611 8.95179 19.72 8.96984 19.8196Z" fill="#161514"/>
</svg>
