<svg width="24" height="24" viewBox="0 0 24 24" fill="none" xmlns="http://www.w3.org/2000/svg">
<g clip-path="url(#clip0_94_902)">
<path d="M1.63637 21.0044H5.45455V11.7316L0 7.64075V19.368C0 20.2721 0.732275 21.0044 1.63637 21.0044Z" fill="#4285F4"/>
<path d="M18.5455 21.0044H22.3637C23.2678 21.0044 24 20.2721 24 19.368V7.64075L18.5455 11.7316V21.0044Z" fill="#34A853"/>
<path d="M18.5455 4.64078V11.7317L24 7.64075V5.45895C24 3.43668 21.6914 2.28168 20.0728 3.49532L18.5455 4.64078Z" fill="#FBBC04"/>
<path fill-rule="evenodd" clip-rule="evenodd" d="M5.45453 11.7317V4.64075L12 9.54985L18.5454 4.64075V11.7317L12 16.6408L5.45453 11.7317Z" fill="#EA4335"/>
<path d="M0 5.45895V7.64075L5.45455 11.7317V4.64078L3.92727 3.49532C2.30863 2.28168 0 3.43668 0 5.45895Z" fill="#C5221F"/>
</g>
<defs>
<clipPath id="clip0_94_902">
<rect width="24" height="24" fill="white"/>
</clipPath>
</defs>
</svg>
