<svg width="24" height="24" viewBox="0 0 24 24" fill="none" xmlns="http://www.w3.org/2000/svg">
<path d="M12 24C18.6274 24 24 18.6274 24 12C24 5.3726 18.6274 0 12 0C5.3726 0 0 5.3726 0 12C0 18.6274 5.3726 24 12 24Z" fill="white"/>
<path d="M7.42863 16.6207V19.1821L9.82368 17.8205C10.4913 18.0129 11.201 18.1168 11.9363 18.1168C15.8778 18.1168 19.0725 15.1355 19.0725 11.4584C19.0725 7.78105 15.8778 4.79999 11.9363 4.79999C7.99498 4.79999 4.79999 7.78105 4.79999 11.4584C4.79999 13.5406 5.82443 15.3999 7.42863 16.6207Z" fill="url(#paint0_linear_94_903)"/>
<path d="M11.1742 9.6347L7.32562 13.7095L10.8282 11.7878L12.6582 13.7095L16.485 9.6347L13.0214 11.5228L11.1742 9.6347Z" fill="white"/>
<defs>
<linearGradient id="paint0_linear_94_903" x1="5.59638" y1="5.7722" x2="5.59638" y2="18.5493" gradientUnits="userSpaceOnUse">
<stop stop-color="#00C6FF"/>
<stop offset="1" stop-color="#0068FF"/>
</linearGradient>
</defs>
</svg>
