<svg width="24" height="24" viewBox="0 0 24 24" fill="none" xmlns="http://www.w3.org/2000/svg">
<path d="M12 23.9016C18.6274 23.9016 24 18.5511 24 11.9508C24 5.35055 18.6274 0 12 0C5.3726 0 0 5.35055 0 11.9508C0 18.5511 5.3726 23.9016 12 23.9016Z" fill="white"/>
<path d="M12 0C5.37285 0 0 5.3508 0 11.9508C0 17.0164 3.1605 21.3443 7.6247 23.0853C7.51605 22.141 7.42715 20.6853 7.6642 19.6525C7.8815 18.7181 9.06665 13.7115 9.06665 13.7115C9.06665 13.7115 8.7111 12.9935 8.7111 11.941C8.7111 10.2787 9.679 9.03935 10.884 9.03935C11.9111 9.03935 12.405 9.80655 12.405 10.7213C12.405 11.7443 11.7531 13.2787 11.4074 14.7049C11.121 15.8951 12.0099 16.8689 13.1852 16.8689C15.3185 16.8689 16.958 14.6262 16.958 11.4C16.958 8.5377 14.8939 6.541 11.9408 6.541C8.52345 6.541 6.5185 9.0885 6.5185 11.7246C6.5185 12.7476 6.9136 13.8492 7.4074 14.4492C7.50615 14.5672 7.51605 14.6754 7.4864 14.7935C7.39755 15.1672 7.1901 15.9836 7.1506 16.1508C7.10125 16.3672 6.97285 16.4164 6.7457 16.3082C5.24445 15.6099 4.30618 13.436 4.30618 11.6754C4.30618 7.9082 7.05185 4.4459 12.2371 4.4459C16.3951 4.4459 19.6346 7.3967 19.6346 11.3508C19.6346 15.4721 17.0271 18.7869 13.4123 18.7869C12.1975 18.7869 11.0518 18.1574 10.6666 17.4098C10.6666 17.4098 10.0642 19.6918 9.91605 20.2525C9.6494 21.2951 8.9185 22.5935 8.4247 23.3902C9.5506 23.7344 10.7358 23.9213 11.9803 23.9213C18.6074 23.9213 23.9802 18.5705 23.9802 11.9705C24 5.3508 18.6271 0 12 0Z" fill="#E60019"/>
</svg>
