<svg width="24" height="24" viewBox="0 0 24 24" fill="none" xmlns="http://www.w3.org/2000/svg">
<path d="M0 12C0 5.3726 5.3726 0 12 0C18.6274 0 24 5.3726 24 12C24 18.6274 18.6274 24 12 24C5.3726 24 0 18.6274 0 12Z" fill="#B92B27"/>
<path fill-rule="evenodd" clip-rule="evenodd" d="M11.3249 17.7483C11.8957 17.7483 12.472 17.6679 13.015 17.5229L13.0132 17.5238C13.6597 18.6321 14.5232 19.5779 16.1533 19.5779C18.8473 19.5779 19.1456 17.0962 19.0902 16.4987H18.126C18.0761 16.9475 17.7769 17.5184 17.0381 17.5184C16.3602 17.5184 15.8725 17.0473 15.4015 16.3389C16.8653 15.2048 17.872 13.4509 17.872 11.2926C17.872 7.4118 14.6765 4.79999 11.324 4.79999C8.0269 4.79999 4.79999 7.43215 4.79999 11.2926C4.79999 15.118 8.02785 17.7483 11.3249 17.7483ZM10.1169 14.2969C11.2889 14.2969 11.8892 15.3156 12.4009 16.3223C12.0739 16.4183 11.7174 16.4608 11.324 16.4608C8.84885 16.4608 7.77755 14.7135 7.77755 11.2926C7.77755 7.8533 8.84885 6.08745 11.324 6.08745C13.8361 6.08745 14.9111 7.8533 14.9111 11.2926C14.9111 12.6696 14.7319 13.7816 14.3533 14.6035C13.7142 13.6412 12.9097 12.8839 11.3425 12.8839C10.3349 12.8839 9.5508 13.2145 9.06685 13.632L9.46395 14.4262C9.669 14.3339 9.8934 14.2969 10.1169 14.2969Z" fill="white"/>
</svg>
