<svg width="24" height="24" viewBox="0 0 24 24" fill="none" xmlns="http://www.w3.org/2000/svg">
<path d="M12 24C18.6274 24 24 18.6274 24 12C24 5.3726 18.6274 0 12 0C5.3726 0 0 5.3726 0 12C0 18.6274 5.3726 24 12 24Z" fill="#FF5700"/>
<path fill-rule="evenodd" clip-rule="evenodd" d="M20.8 11.8437C20.8 10.7462 19.9032 9.85325 18.8007 9.85325C18.2964 9.85325 17.8363 10.0418 17.4843 10.3496C16.2316 9.5485 14.5755 9.0272 12.7416 8.93595L13.706 5.9012L16.3372 6.5181C16.3667 7.40215 17.0963 8.113 17.9917 8.113C18.9054 8.113 19.6489 7.37295 19.6489 6.463C19.6489 5.5531 18.9052 4.81305 17.9917 4.81305C17.3279 4.81305 16.7558 5.2044 16.4912 5.76635L13.5345 5.0738C13.3387 5.0281 13.1397 5.14035 13.0797 5.33145L11.9381 8.92405C9.98547 8.9622 8.21407 9.4872 6.88652 10.3234C6.53842 10.0307 6.08907 9.85325 5.59927 9.85325C4.49672 9.85345 3.59998 10.7462 3.59998 11.8437C3.59998 12.5425 3.96431 13.1569 4.51275 13.5118C4.4848 13.69 4.46975 13.8707 4.46975 14.0533C4.46975 16.8837 7.92147 19.1866 12.1648 19.1866C16.4077 19.1866 19.8598 16.8837 19.8598 14.0533C19.8598 13.8839 19.8469 13.7163 19.8229 13.5505C20.4063 13.2034 20.8 12.5694 20.8 11.8437ZM17.9917 5.58015C18.4809 5.58015 18.8789 5.97655 18.8789 6.4636C18.8789 6.95065 18.4809 7.34685 17.9917 7.34685C17.5023 7.34685 17.1043 6.95065 17.1043 6.4636C17.1043 5.97655 17.5023 5.58015 17.9917 5.58015ZM5.59907 10.6199C4.92145 10.6199 4.37007 11.1691 4.37007 11.8437C4.37007 12.1843 4.5106 12.4923 4.73713 12.7143C5.02662 12.0008 5.53987 11.3479 6.22572 10.7931C6.04177 10.6839 5.82797 10.6199 5.59907 10.6199ZM19.0898 14.0537C19.0898 16.4611 15.9828 18.4201 12.1648 18.4201C8.34622 18.4201 5.23982 16.4613 5.23982 14.0537C5.23982 13.9689 5.24452 13.8853 5.25197 13.8017C5.27522 13.5458 5.33462 13.2956 5.42512 13.0531C5.65987 12.4246 6.11022 11.8478 6.72527 11.3561C6.92212 11.1986 7.13537 11.05 7.36367 10.9112C8.60967 10.1541 10.3019 9.68705 12.1648 9.68705C14.0546 9.68705 15.7698 10.1673 17.0199 10.9439C17.2488 11.0858 17.4614 11.238 17.6573 11.3989C18.2479 11.8832 18.6797 12.4479 18.9074 13.0619C18.9971 13.3051 19.0565 13.5556 19.0788 13.8121C19.0856 13.8924 19.0898 13.9726 19.0898 14.0537ZM18.1332 10.8178C18.8187 11.3796 19.3307 12.0391 19.612 12.7601C19.8675 12.5359 20.0297 12.2086 20.0301 11.8437C20.0301 11.1689 19.4787 10.6199 18.8009 10.6199C18.5546 10.6199 18.3255 10.6931 18.1332 10.8178Z" fill="white"/>
<path d="M10.8086 13.1308C10.8086 12.4844 10.282 11.942 9.63251 11.942C8.98321 11.942 8.43866 12.4844 8.43866 13.1308C8.43866 13.777 8.98341 14.3018 9.63251 14.3018C10.282 14.3011 10.8086 13.777 10.8086 13.1308Z" fill="white"/>
<path d="M14.7853 11.9417C14.136 11.9417 13.5897 12.4838 13.5897 13.1303C13.5897 13.7769 14.136 14.3013 14.7853 14.3013C15.4348 14.3013 15.9618 13.7773 15.9618 13.1303C15.9614 12.4834 15.4348 11.9417 14.7853 11.9417Z" fill="white"/>
<path d="M14.453 15.969C14.0173 16.4021 13.2838 16.6125 12.2089 16.6125C12.2056 16.6125 12.2027 16.6135 12.1996 16.6135C12.1963 16.6135 12.1935 16.6125 12.1904 16.6125C11.1154 16.6125 10.3816 16.4021 9.94655 15.969C9.79625 15.8191 9.55235 15.8191 9.402 15.969C9.2515 16.119 9.2515 16.3617 9.402 16.5109C9.9886 17.0951 10.9007 17.3794 12.1904 17.3794C12.1937 17.3794 12.1964 17.3782 12.1996 17.3782C12.2027 17.3782 12.2056 17.3794 12.2089 17.3794C13.4984 17.3794 14.4108 17.0951 14.9979 16.5113C15.1486 16.3613 15.1486 16.1188 14.9983 15.9694C14.8476 15.8195 14.6037 15.8195 14.453 15.969Z" fill="white"/>
</svg>
