<svg width="24" height="24" viewBox="0 0 24 24" fill="none" xmlns="http://www.w3.org/2000/svg">
<path d="M0 12C0 5.3726 5.3726 0 12 0C18.6274 0 24 5.3726 24 12C24 18.6274 18.6274 24 12 24C5.3726 24 0 18.6274 0 12Z" fill="#FF0000"/>
<path d="M18.1325 9.03661C17.9853 8.47111 17.5515 8.02581 17.0008 7.87466C16.0027 7.60001 12 7.60001 12 7.60001C12 7.60001 7.99728 7.60001 6.99913 7.87466C6.44833 8.02581 6.01458 8.47111 5.86738 9.03661C5.59998 10.0616 5.59998 12.2 5.59998 12.2C5.59998 12.2 5.59998 14.3384 5.86738 15.3634C6.01458 15.9289 6.44833 16.3742 6.99913 16.5254C7.99728 16.8 12 16.8 12 16.8C12 16.8 16.0027 16.8 17.0008 16.5254C17.5515 16.3742 17.9853 15.9289 18.1325 15.3634C18.4 14.3384 18.4 12.2 18.4 12.2C18.4 12.2 18.4 10.0616 18.1325 9.03661Z" fill="white"/>
<path d="M10.8 14.4V10.4L14 12.4L10.8 14.4Z" fill="#FF0000"/>
</svg>
