<svg width="110" height="24" viewBox="0 0 110 24" fill="none" xmlns="http://www.w3.org/2000/svg">
<g clip-path="url(#clip0)">
<path fill-rule="evenodd" clip-rule="evenodd" d="M23.978 1V20.98C23.978 22.096 23.073 23 21.957 23H1.998C0.882997 23 -0.0220032 22.095 -0.0220032 20.98V3H1.978V20.199C1.978 20.97 2.978 20.97 2.978 20.199V1H23.978ZM21.978 20V3H4.978V20H21.978ZM19.978 17V18H6.978V17H19.978ZM12.978 11V15H6.978V11H12.978ZM19.978 14V15H14.978V14H19.978ZM19.978 11V12H14.978V11H19.978ZM16.249 8.646C16.971 8.646 17.485 8.246 17.485 7.57C17.485 6.828 16.919 6.643 16.415 6.483C15.897 6.317 15.816 6.207 15.816 6.047C15.816 5.907 15.935 5.781 16.173 5.781C16.477 5.781 16.634 5.937 16.748 6.187L17.39 5.791C17.147 5.275 16.719 5 16.173 5C15.597 5 15.055 5.391 15.055 6.067C15.055 6.738 15.54 6.989 16.035 7.134C16.534 7.279 16.724 7.364 16.724 7.58C16.724 7.715 16.634 7.865 16.272 7.865C15.897 7.865 15.692 7.67 15.573 7.379L14.917 7.78C15.103 8.296 15.55 8.646 16.249 8.646V8.646ZM18.935 8.646C19.658 8.646 20.171 8.246 20.171 7.57C20.171 6.828 19.605 6.643 19.101 6.483C18.583 6.317 18.502 6.207 18.502 6.047C18.502 5.907 18.621 5.781 18.859 5.781C19.163 5.781 19.32 5.937 19.434 6.187L20.076 5.791C19.834 5.275 19.406 5 18.859 5C18.284 5 17.742 5.391 17.742 6.067C17.742 6.738 18.227 6.989 18.721 7.134C19.22 7.279 19.41 7.364 19.41 7.58C19.41 7.715 19.32 7.865 18.959 7.865C18.583 7.865 18.379 7.67 18.26 7.379L17.604 7.78C17.789 8.296 18.236 8.646 18.935 8.646V8.646ZM7.595 8.576H6.835V5.07H8.095C8.751 5.07 9.259 5.606 9.259 6.272C9.259 6.938 8.751 7.474 8.095 7.474H7.595V8.576ZM14.632 5.841H13.325V6.423H14.513V7.184H13.325V7.805H14.656V8.576H12.564V5.07H14.632V5.841V5.841ZM10.401 8.576H9.64V5.07H10.971C11.603 5.07 12.112 5.606 12.112 6.272C12.112 6.703 11.865 7.094 11.499 7.289L12.207 8.576H11.389L10.762 7.424H10.401V8.576ZM8.095 5.821H7.595V6.723H8.095C8.328 6.723 8.499 6.528 8.499 6.272C8.499 6.017 8.328 5.821 8.095 5.821V5.821ZM10.971 5.821H10.401V6.723H10.971C11.18 6.723 11.351 6.528 11.351 6.272C11.351 6.017 11.18 5.821 10.971 5.821V5.821Z" fill="white"/>
</g>
<path d="M44.752 15.704V17H40.054V15.704L41.098 15.38L45.22 4.364L47.866 4.292L51.754 15.38L52.78 15.704V17H47.614V15.704L48.856 15.344L48.316 13.598H44.05L43.456 15.344L44.752 15.704ZM44.626 11.816H47.812L46.336 6.686L44.626 11.816ZM53.1783 17V15.704L54.3843 15.362V9.098L53.1783 8.738V7.442L56.3463 7.298L56.5983 8.666C57.0903 8.186 57.5763 7.82 58.0563 7.568C58.5483 7.304 59.0763 7.172 59.6403 7.172C60.0123 7.172 60.4203 7.232 60.8643 7.352L60.7023 10.682H59.2443L59.0283 9.17C58.9443 9.158 58.8543 9.152 58.7583 9.152C58.4343 9.152 58.1103 9.242 57.7863 9.422C57.4623 9.602 57.1683 9.836 56.9043 10.124V15.362L58.3983 15.704V17H53.1783ZM65.7265 17.216C64.8985 17.216 64.1485 17.024 63.4765 16.64C62.8165 16.256 62.2945 15.698 61.9105 14.966C61.5265 14.222 61.3345 13.328 61.3345 12.284C61.3345 11.336 61.4725 10.538 61.7485 9.89C62.0245 9.23 62.3965 8.702 62.8645 8.306C63.3325 7.91 63.8545 7.622 64.4305 7.442C65.0065 7.262 65.6005 7.172 66.2125 7.172C66.7885 7.172 67.3705 7.244 67.9585 7.388C68.5465 7.532 69.0265 7.694 69.3985 7.874L69.3265 10.52H67.7065L67.4545 9.134C67.2745 9.074 67.0765 9.032 66.8605 9.008C66.6445 8.984 66.4465 8.972 66.2665 8.972C65.4865 8.972 64.9045 9.26 64.5205 9.836C64.1485 10.4 63.9625 11.168 63.9625 12.14C63.9625 13.196 64.1725 14 64.5925 14.552C65.0245 15.092 65.5945 15.362 66.3025 15.362C67.0705 15.362 67.9405 15.05 68.9125 14.426L69.7585 15.704C69.0865 16.22 68.4085 16.604 67.7245 16.856C67.0525 17.096 66.3865 17.216 65.7265 17.216ZM75.1727 15.704V17H70.2587V15.704L71.4467 15.362V4.76L70.2587 4.436V3.14L73.9667 2.996V15.362L75.1727 15.704ZM80.9091 15.704V17H75.9771V15.704L77.1831 15.362V9.08L75.9771 8.738V7.442L79.7031 7.316V15.362L80.9091 15.704ZM78.3711 5.912C77.9271 5.912 77.5671 5.786 77.2911 5.534C77.0271 5.282 76.8951 4.922 76.8951 4.454C76.8951 3.95 77.0331 3.578 77.3091 3.338C77.5971 3.086 77.9571 2.96 78.3891 2.96C78.8091 2.96 79.1571 3.086 79.4331 3.338C79.7091 3.578 79.8471 3.944 79.8471 4.436C79.8471 4.928 79.7031 5.3 79.4151 5.552C79.1391 5.792 78.7911 5.912 78.3711 5.912ZM85.8655 21.356C82.9015 21.356 81.4195 20.57 81.4195 18.998C81.4195 18.062 81.9595 17.336 83.0395 16.82C82.5355 16.616 82.2835 16.286 82.2835 15.83C82.2835 15.71 82.3135 15.566 82.3735 15.398C82.4335 15.23 82.5415 15.008 82.6975 14.732C82.8655 14.444 83.0935 14.066 83.3815 13.598C82.3015 13.01 81.7615 12.056 81.7615 10.736C81.7615 9.62 82.1455 8.75 82.9135 8.126C83.6815 7.49 84.7375 7.172 86.0815 7.172C86.9215 7.172 87.6595 7.298 88.2955 7.55L90.9955 7.46V8.81L89.8975 9.044C90.0295 9.236 90.1255 9.464 90.1855 9.728C90.2575 9.98 90.2935 10.262 90.2935 10.574C90.2935 11.69 89.9035 12.572 89.1235 13.22C88.3435 13.856 87.2935 14.174 85.9735 14.174C85.4815 14.174 85.0015 14.12 84.5335 14.012L84.3175 15.416H87.5215C88.7335 15.416 89.6515 15.65 90.2755 16.118C90.8995 16.586 91.2115 17.27 91.2115 18.17C91.2115 19.202 90.7615 19.988 89.8615 20.528C88.9735 21.08 87.6415 21.356 85.8655 21.356ZM85.9735 12.482C87.1855 12.482 87.7915 11.864 87.7915 10.628C87.7915 9.452 87.2155 8.864 86.0635 8.864C84.8755 8.864 84.2815 9.464 84.2815 10.664C84.2815 11.876 84.8455 12.482 85.9735 12.482ZM86.0815 19.592C87.0295 19.592 87.7195 19.49 88.1515 19.286C88.5835 19.082 88.7995 18.782 88.7995 18.386C88.7995 18.002 88.6555 17.72 88.3675 17.54C88.0795 17.36 87.6655 17.27 87.1255 17.27H84.3895C83.8735 17.654 83.6155 18.074 83.6155 18.53C83.6155 18.89 83.8135 19.154 84.2095 19.322C84.6055 19.502 85.2295 19.592 86.0815 19.592ZM91.6864 17V15.704L92.8744 15.362V4.778L91.6864 4.436V3.14L95.3944 2.996V8.396C95.9104 7.988 96.4384 7.682 96.9784 7.478C97.5184 7.274 98.0344 7.172 98.5264 7.172C99.3304 7.172 100.002 7.43 100.542 7.946C101.094 8.45 101.364 9.212 101.352 10.232V15.344L102.558 15.704V17H97.7524V15.704L98.8324 15.398V10.772C98.8444 10.196 98.7184 9.77 98.4544 9.494C98.1904 9.218 97.8484 9.08 97.4284 9.08C97.1284 9.08 96.7984 9.158 96.4384 9.314C96.0904 9.47 95.7424 9.698 95.3944 9.998V15.38L96.4744 15.704V17H91.6864ZM106.768 17.216C105.088 17.216 104.248 16.226 104.248 14.246V9.062H102.844V7.712L104.248 7.388V5.282L106.786 4.832V7.388H109.252L109.216 9.062H106.786V13.904C106.786 14.42 106.87 14.792 107.038 15.02C107.206 15.248 107.458 15.362 107.794 15.362C108.154 15.362 108.622 15.242 109.198 15.002L109.666 16.388C108.658 16.94 107.692 17.216 106.768 17.216Z" fill="white"/>
<defs>
<clipPath id="clip0">
<rect width="24" height="24" fill="white"/>
</clipPath>
</defs>
</svg>
