<svg width="150" height="72" viewBox="0 0 150 72" fill="none" xmlns="http://www.w3.org/2000/svg">
<path fill-rule="evenodd" clip-rule="evenodd" d="M111.655 29.48C110.63 23.64 93.4065 21.8 73.0694 25.44C64.2409 27 56.2401 29.32 50.1705 31.96C50.4858 31.88 50.8405 31.84 51.2346 31.84C52.2988 31.84 53.7965 32.12 53.7965 33.8V34.32H51.9046C51.9046 34.32 51.9046 34 51.9046 33.84C51.9046 33.44 51.6288 33.12 51.1952 33.12C50.7223 33.12 50.5646 33.4 50.4858 33.64C50.4858 33.72 50.4464 33.92 50.4858 34.04C50.7223 34.96 53.5994 35.44 53.8753 37.04C53.9147 37.2 53.9935 37.64 53.8753 38.32C53.6782 39.6 52.5747 40.08 51.1558 40.08C49.6975 40.08 48.3969 39.56 48.3969 37.84V37.24H50.4464V38C50.4464 38.4 50.7617 38.72 51.2346 38.72C51.747 38.72 51.9046 38.44 51.9835 38.2C52.0229 38.04 52.0623 37.84 51.9835 37.64C51.5893 36.64 48.8698 36.16 48.5545 34.6C48.4757 34.24 48.4757 33.88 48.5545 33.56C48.6334 33.04 48.8698 32.64 49.264 32.36C41.8937 35.6 37.5583 39.32 38.1101 42.48C39.1348 48.32 56.3583 50.16 76.6954 46.52C85.7604 44.92 93.9189 42.52 100.028 39.84C99.7126 39.92 99.3579 39.96 99.0031 39.96C97.6631 39.96 96.4413 39.48 96.3231 38.04C96.2837 37.76 96.2837 37.68 96.2837 37.52V34.24C96.2837 34.08 96.2837 33.88 96.3231 33.72C96.5201 32.28 97.6631 31.8 99.0031 31.8C100.343 31.8 101.526 32.24 101.683 33.72C101.723 34 101.683 34.24 101.683 34.24V34.52H99.752V34.12C99.752 34.12 99.752 33.92 99.7126 33.8C99.6732 33.6 99.5155 33.24 98.9637 33.24C98.412 33.24 98.2543 33.6 98.2149 33.8C98.1755 33.92 98.1755 34.04 98.1755 34.16V37.68C98.1755 37.8 98.1755 37.88 98.2149 38C98.2543 38.24 98.4514 38.56 99.0031 38.56C99.5549 38.56 99.752 38.24 99.7914 38C99.7914 37.92 99.7914 37.8 99.7914 37.68V36.6H99.0031V35.48H101.723V37.56C101.723 37.72 101.723 37.84 101.683 38.08C101.604 38.72 101.368 39.16 100.934 39.48C107.989 36.2 112.167 32.6 111.655 29.48ZM59.3552 39.8001L58.3699 32.7601H58.3304L57.2663 39.7601H55.2168L56.6357 32.0401H59.9858L61.4047 39.7601L59.3552 39.8001ZM69.4853 39.8001L69.4459 32.8401H69.4065L68.1453 39.8001H66.2141L64.9529 32.8401H64.9134L64.874 39.8001H62.9822L63.1793 32.0801H66.2929L67.1994 37.9601H67.2388L68.1453 32.0801H71.2589L71.456 39.8001H69.4853ZM78.6251 38.32C78.428 39.6 77.3245 40.04 75.945 40.04C74.5262 40.04 73.2255 39.52 73.2255 37.84V37.24H75.275V38C75.275 38.4 75.5903 38.68 76.0238 38.68C76.5362 38.68 76.6939 38.4 76.7727 38.16C76.8121 38 76.8515 37.8 76.7727 37.6C76.418 36.64 73.6985 36.16 73.3832 34.6C73.3044 34.24 73.3044 33.92 73.3832 33.6C73.5802 32.36 74.6838 31.92 76.0238 31.92C77.088 31.92 78.5857 32.2 78.5857 33.84V34.36H76.6939C76.6939 34.36 76.6939 34.04 76.6939 33.88C76.6939 33.48 76.418 33.2 75.9844 33.2C75.5115 33.2 75.3538 33.48 75.275 33.72C75.2356 33.8 75.2356 34 75.275 34.12C75.5115 35.04 78.3492 35.52 78.6645 37.08C78.6645 37.2 78.7433 37.68 78.6251 38.32ZM85.7637 38.1201C85.606 39.5601 84.5024 40.0401 83.0836 40.0401C81.6647 40.0401 80.5611 39.6001 80.4035 38.1201C80.4035 38.0401 80.3641 37.7601 80.4035 37.6401V32.0801H82.3347V37.8001C82.3347 37.9201 82.3347 38.0401 82.3347 38.1201C82.3741 38.3201 82.5318 38.6801 83.0836 38.6801C83.5959 38.6801 83.793 38.3201 83.8324 38.1201C83.8324 38.0401 83.8718 37.9201 83.8324 37.8001V32.0801H85.7637V37.6001C85.8031 37.7601 85.7637 38.0401 85.7637 38.1201ZM94.3139 39.7201H91.5944L89.7026 33.4401H89.6632L89.7814 39.7201H87.8896V32.0801H90.6879L92.4221 38.1201H92.4615L92.3433 32.0801H94.2351L94.3139 39.7201Z" fill="#8FA0B0"/>
</svg>
