<svg width="150" height="72" viewBox="0 0 150 72" fill="none" xmlns="http://www.w3.org/2000/svg">
<path fill-rule="evenodd" clip-rule="evenodd" d="M49.9333 28.3097C49.9333 28.1952 49.8312 28.1477 49.7467 28.1084C49.735 28.103 49.7237 28.0977 49.713 28.0925C49.6249 28.0925 47.7304 27.9621 47.7304 27.9621L46.2765 26.5283C46.1654 26.4188 45.9298 26.432 45.8052 26.439C45.7815 26.4403 45.7619 26.4414 45.7479 26.4414C45.7479 26.4414 45.4395 26.5283 44.9989 26.6587C44.5583 25.3987 43.8094 24.269 42.4436 24.269H42.3555C41.959 23.7911 41.4743 23.5304 41.0778 23.5304C37.9057 23.5304 36.4078 27.4407 35.9232 29.4394C34.6896 29.8304 33.8085 30.0911 33.7203 30.0911L33.6763 30.1055C33.0575 30.3087 33.0134 30.3231 32.9273 30.9601C32.8392 31.3945 31.0769 45.1242 31.0769 45.1242L45.0429 47.6876L52.6207 46.1235C52.6207 46.1235 49.9773 28.4401 49.9333 28.3097ZM43.5231 27.1379L43.5231 27.1379C43.3747 27.178 43.2205 27.2196 43.0605 27.2669V27.0062C43.0605 26.2241 42.9283 25.6159 42.7521 25.1379C43.5011 25.1814 43.9857 26.0069 44.25 26.9193C44.0256 27.0023 43.7833 27.0677 43.5231 27.1379L43.5231 27.1379ZM42.2668 27.3973C42.2668 26.4849 42.1346 25.7897 41.9584 25.3118C41.1654 25.6159 40.2842 26.4849 39.8437 28.2663L39.8437 28.2662C40.6808 28.0056 41.5178 27.7449 42.2668 27.5276V27.3973ZM40.989 24.4428C41.1212 24.4428 41.2533 24.4863 41.3855 24.5732C40.3722 25.0511 39.2708 26.2242 38.8302 28.6138C38.3144 28.7834 37.7987 28.9265 37.3038 29.0637L37.3036 29.0638C37.1645 29.1024 37.027 29.1405 36.8917 29.1787C37.4644 27.3538 38.7421 24.4428 40.989 24.4428ZM41.5626 34.9573L42.4878 32.2201C42.4878 32.2201 41.871 31.829 40.5933 31.829C37.245 31.829 35.6149 34.0015 35.6149 36.2608C35.6149 37.7717 36.4742 38.4488 37.2289 39.0435C37.8197 39.509 38.3464 39.9241 38.3464 40.649C38.3464 41.0835 38.0821 41.6049 37.3772 41.6049C36.3198 41.6049 35.0422 40.5187 35.0422 40.5187L34.4254 42.6042C34.4254 42.6042 35.6589 44.0815 38.038 44.0815C40.0206 44.0815 41.5185 42.6042 41.5185 40.3015C41.5185 38.5456 40.3164 37.675 39.3623 36.984C38.7346 36.5293 38.2142 36.1525 38.2142 35.6525C38.2142 35.4352 38.3024 34.5228 39.7562 34.5228C40.7255 34.5228 41.5626 34.9573 41.5626 34.9573Z" fill="#8FA0B0"/>
<path fill-rule="evenodd" clip-rule="evenodd" d="M61.4769 37.347C60.7279 36.956 60.3314 36.6084 60.3314 36.1305C60.3314 35.5222 60.8601 35.1312 61.7412 35.1312C62.7105 35.1312 63.5916 35.5222 63.5916 35.5222L64.2965 33.4367C64.2965 33.4367 63.6797 32.9587 61.7853 32.9587C59.1859 32.9587 57.3796 34.436 57.3796 36.4781C57.3796 37.6512 58.2167 38.5636 59.3622 39.1718C60.2874 39.6932 60.5958 40.0408 60.5958 40.5622C60.5958 41.127 60.1552 41.5615 59.2741 41.5615C57.9964 41.5615 56.8509 40.9098 56.8509 40.9098L56.102 42.9953C56.102 42.9953 57.2034 43.7339 59.0538 43.7339C61.7412 43.7339 63.6357 42.4305 63.6357 40.0843C63.5916 38.9112 62.6224 38.0422 61.4769 37.347ZM72.1384 33.0022C70.8166 33.0022 69.8033 33.6105 68.9663 34.5663H68.9222L70.0677 28.6139H67.0718L64.1641 43.647H67.1599L68.1732 38.5201C68.5697 36.565 69.5831 35.3919 70.5082 35.3919C71.1691 35.3919 71.4334 35.8263 71.4334 36.4781C71.4334 36.8691 71.3894 37.3905 71.3013 37.7815L70.1558 43.647H73.1957L74.3853 37.5643C74.5174 36.9125 74.6055 36.1739 74.6055 35.6525C74.5615 34.0015 73.6803 33.0022 72.1384 33.0022ZM81.3031 33.0021C77.7345 33.0021 75.3555 36.2173 75.3555 39.7366C75.3555 42.0393 76.7653 43.8642 79.4528 43.8642C82.9773 43.8642 85.3564 40.7359 85.3564 37.1297C85.3564 34.9573 84.0787 33.0021 81.3031 33.0021ZM79.8486 41.5614C78.8353 41.5614 78.3947 40.6924 78.3947 39.6497C78.3947 37.9552 79.2759 35.2179 80.906 35.2179C81.9633 35.2179 82.3158 36.1303 82.3158 36.9993C82.2717 38.7807 81.3906 41.5614 79.8486 41.5614ZM92.9774 33.0021C90.9508 33.0021 89.8053 34.74 89.8053 34.74H89.7612L89.9375 33.1759H87.2941C87.1619 34.2621 86.9416 35.8697 86.6773 37.0862L84.6506 47.818H87.6025L88.4395 43.4731H88.4836C88.4836 43.4731 89.1004 43.8642 90.2459 43.8642C93.7264 43.8642 96.0173 40.3449 96.0173 36.7387C96.0173 34.74 95.1362 33.0021 92.9774 33.0021ZM90.1159 41.5613C89.3229 41.5613 88.8823 41.1269 88.8823 41.1269L89.367 38.3896C89.7194 36.5648 90.6887 35.3482 91.702 35.3482C92.6272 35.3482 92.8915 36.1738 92.8915 36.9558C92.9356 38.911 91.7901 41.5613 90.1159 41.5613ZM100.291 28.7442C99.3221 28.7442 98.5731 29.4829 98.5731 30.4387C98.5731 31.3077 99.1458 31.916 99.9829 31.916H100.027C100.952 31.916 101.745 31.3077 101.789 30.2215C101.789 29.396 101.172 28.7442 100.291 28.7442ZM96.1068 43.56H99.1026L101.129 33.1324H98.1334L96.1068 43.56ZM108.705 33.2194H106.634L106.723 32.7415C106.899 31.7422 107.516 30.8297 108.485 30.8297C109.013 30.8297 109.454 30.9601 109.454 30.9601L110.027 28.6573C110.027 28.6573 109.498 28.3966 108.397 28.3966C107.339 28.3966 106.282 28.7008 105.489 29.3959C104.476 30.2649 103.991 31.4815 103.771 32.698L103.683 33.1759H102.273L101.832 35.3918H103.242L101.656 43.5601H104.652L106.238 35.3484H108.309L108.705 33.2194ZM115.841 33.2195C115.841 33.2195 113.991 37.8684 113.154 40.3884H113.11C113.066 39.5629 112.361 33.2195 112.361 33.2195H109.233L111.039 42.7781C111.083 42.9953 111.039 43.1257 110.995 43.256C110.643 43.9077 110.07 44.5595 109.365 45.0374C108.792 45.4284 108.176 45.6891 107.691 45.8629L108.528 48.3395C109.145 48.2091 110.378 47.7312 111.436 46.7319C112.801 45.4719 114.035 43.5167 115.357 40.9098L119.013 33.2195H115.841Z" fill="#8FA0B0"/>
</svg>
