<svg width="150" height="72" viewBox="0 0 150 72" fill="none" xmlns="http://www.w3.org/2000/svg">
<path fill-rule="evenodd" clip-rule="evenodd" d="M59.7358 42.123L60.7933 39.6738C61.936 40.5242 63.454 40.9664 64.955 40.9664C66.0636 40.9664 66.7629 40.5412 66.7629 39.8949C66.7459 38.0921 60.1281 39.5037 60.0769 34.9796C60.0598 32.6836 62.1066 30.9148 65.0061 30.9148C66.7288 30.9148 68.4515 31.34 69.6795 32.3094L68.6903 34.8096C67.5646 34.0952 66.166 33.585 64.8356 33.585C63.9316 33.585 63.3346 34.0102 63.3346 34.5544C63.3517 36.3233 70.0207 35.3538 70.0889 39.6738C70.0889 42.0209 68.0933 43.6707 65.2279 43.6707C63.13 43.6707 61.2026 43.1774 59.7358 42.123Z" fill="#8FA0B0"/>
<path fill-rule="evenodd" clip-rule="evenodd" d="M100.311 38.7894C99.7821 39.7078 98.7928 40.3371 97.65 40.3371C95.9615 40.3371 94.597 38.9765 94.597 37.2927C94.597 35.6089 95.9615 34.2483 97.65 34.2483C98.7928 34.2483 99.7821 34.8776 100.311 35.796L103.227 34.1803C102.136 32.2414 100.038 30.9148 97.65 30.9148C94.1194 30.9148 91.254 33.7721 91.254 37.2927C91.254 40.8133 94.1194 43.6707 97.65 43.6707C100.055 43.6707 102.136 42.3611 103.227 40.4052L100.311 38.7894Z" fill="#8FA0B0"/>
<rect x="71.5554" y="25.6253" width="3.65002" height="17.8072" fill="#8FA0B0"/>
<path fill-rule="evenodd" clip-rule="evenodd" d="M104.662 25.6253V43.4326H108.312V38.0921L112.644 43.4326H117.317L111.808 37.0886L116.908 31.1699H112.439L108.312 36.0851V25.6253H104.662Z" fill="#8FA0B0"/>
<path fill-rule="evenodd" clip-rule="evenodd" d="M86.0556 38.8233C85.5269 39.6908 84.4353 40.337 83.2073 40.337C81.5187 40.337 80.1542 38.9764 80.1542 37.2926C80.1542 35.6089 81.5187 34.2482 83.2073 34.2482C84.4353 34.2482 85.5269 34.9285 86.0556 35.813V38.8233ZM86.057 31.1698V32.6155C85.4601 31.612 83.9762 30.9147 82.4241 30.9147C79.2175 30.9147 76.6932 33.738 76.6932 37.2756C76.6932 40.8133 79.2175 43.6706 82.4241 43.6706C83.9762 43.6706 85.4601 42.9733 86.057 41.9698V43.4155H89.7071V31.1698H86.057Z" fill="#8FA0B0"/>
<path fill-rule="evenodd" clip-rule="evenodd" d="M37.1702 38.8064C37.1702 40.048 36.1639 41.0514 34.9188 41.0514C33.6737 41.0514 32.6674 40.048 32.6674 38.8064C32.6674 37.5648 33.6737 36.5613 34.9188 36.5613H37.1702V38.8064Z" fill="#8FA0B0"/>
<path fill-rule="evenodd" clip-rule="evenodd" d="M38.2952 38.8064C38.2952 37.5648 39.3015 36.5613 40.5466 36.5613C41.7917 36.5613 42.798 37.5648 42.798 38.8064V44.419C42.798 45.6606 41.7917 46.664 40.5466 46.664C39.3015 46.664 38.2952 45.6606 38.2952 44.419V38.8064Z" fill="#8FA0B0"/>
<path fill-rule="evenodd" clip-rule="evenodd" d="M40.5466 29.7922C39.3015 29.7922 38.2952 28.7887 38.2952 27.5472C38.2952 26.3056 39.3015 25.3021 40.5466 25.3021C41.7917 25.3021 42.798 26.3056 42.798 27.5472V29.7922H40.5466Z" fill="#8FA0B0"/>
<path fill-rule="evenodd" clip-rule="evenodd" d="M40.547 30.9316C41.7921 30.9316 42.7984 31.9351 42.7984 33.1767C42.7984 34.4183 41.7921 35.4217 40.547 35.4217H34.9014C33.6563 35.4217 32.65 34.4183 32.65 33.1767C32.65 31.9351 33.6563 30.9316 34.9014 30.9316H40.547Z" fill="#8FA0B0"/>
<path fill-rule="evenodd" clip-rule="evenodd" d="M49.5709 33.1767C49.5709 31.9351 50.5772 30.9316 51.8223 30.9316C53.0674 30.9316 54.0738 31.9351 54.0738 33.1767C54.0738 34.4183 53.0674 35.4217 51.8223 35.4217H49.5709V33.1767Z" fill="#8FA0B0"/>
<path fill-rule="evenodd" clip-rule="evenodd" d="M48.4431 33.1768C48.4431 34.4183 47.4368 35.4218 46.1917 35.4218C44.9466 35.4218 43.9403 34.4183 43.9403 33.1768V27.5472C43.9403 26.3056 44.9466 25.3021 46.1917 25.3021C47.4368 25.3021 48.4431 26.3056 48.4431 27.5472V33.1768Z" fill="#8FA0B0"/>
<path fill-rule="evenodd" clip-rule="evenodd" d="M46.1917 42.174C47.4368 42.174 48.4431 43.1774 48.4431 44.419C48.4431 45.6606 47.4368 46.6641 46.1917 46.6641C44.9466 46.6641 43.9403 45.6606 43.9403 44.419V42.174H46.1917Z" fill="#8FA0B0"/>
<path fill-rule="evenodd" clip-rule="evenodd" d="M46.1917 41.0514C44.9466 41.0514 43.9403 40.048 43.9403 38.8064C43.9403 37.5648 44.9466 36.5613 46.1917 36.5613H51.8373C53.0824 36.5613 54.0887 37.5648 54.0887 38.8064C54.0887 40.048 53.0824 41.0514 51.8373 41.0514H46.1917Z" fill="#8FA0B0"/>
</svg>
