<svg width="150" height="72" viewBox="0 0 150 72" fill="none" xmlns="http://www.w3.org/2000/svg">
<path fill-rule="evenodd" clip-rule="evenodd" d="M53.4378 32.265H43.5354V35.1422H50.5771C50.225 39.1964 46.7922 40.9838 43.5795 40.9838C39.4425 40.9838 35.8337 37.7578 35.8337 33.2677C35.8337 28.8647 39.2665 25.4644 43.5795 25.4644C46.9242 25.4644 48.8607 27.5569 48.8607 27.5569L50.8852 25.4644C50.8852 25.4644 48.2445 22.5872 43.4474 22.5872C37.33 22.5436 32.6209 27.6441 32.6209 33.1805C32.6209 38.5861 37.0659 43.861 43.6235 43.861C49.3888 43.861 53.6138 39.9811 53.6138 34.1832C53.6138 32.9625 53.4378 32.265 53.4378 32.265Z" fill="#8FA0B0"/>
<path fill-rule="evenodd" clip-rule="evenodd" d="M61.4933 30.129C57.4444 30.129 54.5397 33.2677 54.5397 36.9296C54.5397 40.6787 57.3564 43.861 61.5813 43.861C65.4102 43.861 68.4909 41.0274 68.4909 37.0168C68.4469 32.483 64.8381 30.129 61.4933 30.129ZM61.5353 32.8755C63.5157 32.8755 65.4082 34.4884 65.4082 37.0169C65.4082 39.5453 63.5598 41.1583 61.5353 41.1583C59.3348 41.1583 57.6184 39.4145 57.6184 36.9733C57.5744 34.6192 59.2908 32.8755 61.5353 32.8755Z" fill="#8FA0B0"/>
<path fill-rule="evenodd" clip-rule="evenodd" d="M76.6315 30.129C72.5826 30.129 69.6779 33.2677 69.6779 36.9296C69.6779 40.6787 72.4945 43.861 76.7195 43.861C80.5484 43.861 83.6291 41.0274 83.6291 37.0168C83.5851 32.483 79.9763 30.129 76.6315 30.129ZM76.6762 32.8755C78.6567 32.8755 80.5491 34.4884 80.5491 37.0169C80.5491 39.5453 78.7007 41.1583 76.6762 41.1583C74.4757 41.1583 72.7593 39.4145 72.7593 36.9733C72.7153 34.6192 74.4317 32.8755 76.6762 32.8755Z" fill="#8FA0B0"/>
<path fill-rule="evenodd" clip-rule="evenodd" d="M91.4616 30.1725C87.7207 30.1725 84.816 33.3984 84.816 37.0167C84.816 41.1145 88.2048 43.9045 91.3736 43.9045C93.354 43.9045 94.3663 43.1634 95.2025 42.248V43.5994C95.2025 45.9534 93.7501 47.392 91.5496 47.392C89.4371 47.392 88.3809 45.8226 87.9848 44.9508L85.3002 46.0406C86.2244 48.0023 88.1168 50.0512 91.5056 50.0512C95.2025 50.0512 98.0191 47.7408 98.0191 42.9019V30.5648H95.1144V31.7419C94.3223 30.7828 93.09 30.1725 91.4616 30.1725ZM91.7258 32.8754C93.5302 32.8754 95.4227 34.4447 95.4227 37.0604C95.4227 39.7632 93.5742 41.2018 91.6818 41.2018C89.7013 41.2018 87.8529 39.5888 87.8529 37.104C87.8969 34.4011 89.7893 32.8754 91.7258 32.8754Z" fill="#8FA0B0"/>
<path fill-rule="evenodd" clip-rule="evenodd" d="M111.048 30.129C107.527 30.129 104.578 32.8754 104.578 36.9732C104.578 41.289 107.879 43.861 111.356 43.861C114.261 43.861 116.109 42.248 117.165 40.853L114.745 39.2401C114.129 40.1991 113.072 41.1146 111.356 41.1146C109.42 41.1146 108.539 40.0683 107.967 39.0221L117.253 35.1858L116.769 34.0524C115.845 31.9599 113.777 30.129 111.048 30.129ZM111.133 32.7882C112.41 32.7882 113.29 33.4421 113.73 34.2704L107.568 36.8424C107.216 34.8371 109.153 32.7882 111.133 32.7882Z" fill="#8FA0B0"/>
<path fill-rule="evenodd" clip-rule="evenodd" d="M100.175 43.4687H103.212V23.2412H100.175V43.4687Z" fill="#8FA0B0"/>
</svg>
