<svg width="150" height="72" viewBox="0 0 150 72" fill="none" xmlns="http://www.w3.org/2000/svg">
<path fill-rule="evenodd" clip-rule="evenodd" d="M66.1451 31.0391C64.6031 31.0391 62.8849 31.7415 61.8275 33.1464V31.2586H58.2148V44.4293H61.8275V36.922C61.8275 35.561 62.8849 34.1562 64.8234 34.1562C66.3213 34.1562 67.8633 35.2098 67.8633 36.922V44.4293H71.4759V36.2635C71.52 33.2342 69.3612 31.0391 66.1451 31.0391Z" fill="#8FA0B0"/>
<path fill-rule="evenodd" clip-rule="evenodd" d="M97.3356 31.2588L94.0753 40.2149L90.7711 31.2588H86.6297L92.0928 44.4295H96.0579L101.477 31.2588H97.3356Z" fill="#8FA0B0"/>
<path fill-rule="evenodd" clip-rule="evenodd" d="M55.31 33.1903C54.0764 31.7854 52.2701 31.0391 50.0672 31.0391C46.058 31.0391 43.0622 33.9806 43.0622 37.844C43.0622 41.8391 46.1021 44.6488 50.4637 44.6488C52.9309 44.6488 55.4421 43.5074 56.6317 42.1464L54.3407 40.3903C52.8428 41.4879 51.9617 41.7952 50.5518 41.7952C49.3182 41.7952 48.3049 41.4001 47.6441 40.7415L56.9401 36.922C56.7198 35.4293 56.1471 34.1562 55.31 33.1903ZM46.6298 38.3709C46.4536 37.0099 46.8061 35.9562 47.3788 35.2099C47.9956 34.3757 48.9649 33.8928 50.1544 33.8928C51.4761 33.8928 52.4454 34.6392 52.974 35.7367L46.6298 38.3709Z" fill="#8FA0B0"/>
<path fill-rule="evenodd" clip-rule="evenodd" d="M34.513 27.3073H30.8123V44.4293H42.7517V41.0927H34.513V27.3073Z" fill="#8FA0B0"/>
<path fill-rule="evenodd" clip-rule="evenodd" d="M108.085 31.0391C104.076 31.0391 100.948 34.0245 100.948 37.844C100.948 41.7074 104.076 44.6488 108.041 44.6488C112.05 44.6488 115.178 41.6635 115.178 37.844C115.134 33.9806 112.05 31.0391 108.085 31.0391ZM108.085 41.5318C106.103 41.5318 104.517 39.9074 104.517 37.8001C104.517 35.6049 105.971 34.0684 107.997 34.0684C109.98 34.0684 111.566 35.6927 111.566 37.8001C111.566 39.9952 110.112 41.5318 108.085 41.5318Z" fill="#8FA0B0"/>
<path fill-rule="evenodd" clip-rule="evenodd" d="M80.1092 31.0391C76.1 31.0391 72.972 34.0245 72.972 37.844C72.972 41.7074 76.1 44.6488 80.0651 44.6488C84.0743 44.6488 87.2024 41.6635 87.2024 37.844C87.2024 33.9806 84.0743 31.0391 80.1092 31.0391ZM80.1112 41.5318C78.1286 41.5318 76.5426 39.9074 76.5426 37.8001C76.5426 35.6049 77.9965 34.0684 80.0231 34.0684C82.0056 34.0684 83.5917 35.6927 83.5917 37.8001C83.5917 39.9952 82.1378 41.5318 80.1112 41.5318Z" fill="#8FA0B0"/>
<path fill-rule="evenodd" clip-rule="evenodd" d="M115.048 42.8488H115.664V44.4293H116.017V42.8488H116.59V42.5415H115.048V42.8488Z" fill="#8FA0B0"/>
<path fill-rule="evenodd" clip-rule="evenodd" d="M118.529 42.5415L117.957 43.4196L117.384 42.5415H116.987V44.4293H117.34V43.0683L117.957 43.9903H118.001L118.574 43.0683V44.4293H118.926V42.5415H118.529Z" fill="#8FA0B0"/>
</svg>
