<svg width="110" height="24" viewBox="0 0 110 24" fill="none" xmlns="http://www.w3.org/2000/svg">
<g clip-path="url(#clip0)">
<path fill-rule="evenodd" clip-rule="evenodd" d="M23.9789 1V20.98C23.9789 22.096 23.0739 23 21.9579 23H1.99885C0.883851 23 -0.0211487 22.095 -0.0211487 20.98V3H1.97885V20.199C1.97885 20.97 2.97885 20.97 2.97885 20.199V1H23.9789ZM21.9789 20V3H4.97885V20H21.9789ZM19.9789 17V18H6.97885V17H19.9789ZM12.9789 11V15H6.97885V11H12.9789ZM19.9789 14V15H14.9789V14H19.9789ZM19.9789 11V12H14.9789V11H19.9789ZM16.2499 8.646C16.9719 8.646 17.4859 8.246 17.4859 7.57C17.4859 6.828 16.9199 6.643 16.4159 6.483C15.8979 6.317 15.8169 6.207 15.8169 6.047C15.8169 5.907 15.9359 5.781 16.1739 5.781C16.4779 5.781 16.6348 5.937 16.7488 6.187L17.3909 5.791C17.1479 5.275 16.7199 5 16.1739 5C15.5979 5 15.0559 5.391 15.0559 6.067C15.0559 6.738 15.5409 6.989 16.0359 7.134C16.5349 7.279 16.7249 7.364 16.7249 7.58C16.7249 7.715 16.6348 7.865 16.2729 7.865C15.8979 7.865 15.6929 7.67 15.5739 7.379L14.9179 7.78C15.1039 8.296 15.5509 8.646 16.2499 8.646ZM18.9359 8.646C19.6588 8.646 20.1719 8.246 20.1719 7.57C20.1719 6.828 19.6059 6.643 19.1019 6.483C18.5839 6.317 18.5029 6.207 18.5029 6.047C18.5029 5.907 18.6218 5.781 18.8598 5.781C19.1639 5.781 19.3209 5.937 19.4349 6.187L20.0769 5.791C19.8349 5.275 19.4069 5 18.8598 5C18.2848 5 17.7429 5.391 17.7429 6.067C17.7429 6.738 18.2279 6.989 18.7219 7.134C19.2209 7.279 19.4109 7.364 19.4109 7.58C19.4109 7.715 19.3209 7.865 18.9599 7.865C18.5839 7.865 18.3799 7.67 18.2609 7.379L17.6049 7.78C17.7899 8.296 18.2369 8.646 18.9359 8.646ZM7.59585 8.576H6.83585V5.07H8.09585C8.75185 5.07 9.25985 5.606 9.25985 6.272C9.25985 6.938 8.75185 7.474 8.09585 7.474H7.59585V8.576ZM14.6329 5.841H13.3259V6.423H14.5139V7.184H13.3259V7.805H14.6569V8.576H12.5649V5.07H14.6329V5.841ZM10.4019 8.576H9.64085V5.07H10.9719C11.6039 5.07 12.1129 5.606 12.1129 6.272C12.1129 6.703 11.8659 7.094 11.4999 7.289L12.2079 8.576H11.3899L10.7629 7.424H10.4019V8.576ZM8.09585 5.821H7.59585V6.723H8.09585C8.32885 6.723 8.49985 6.528 8.49985 6.272C8.49985 6.017 8.32885 5.821 8.09585 5.821ZM10.9719 5.821H10.4019V6.723H10.9719C11.1809 6.723 11.3519 6.528 11.3519 6.272C11.3519 6.017 11.1809 5.821 10.9719 5.821Z" fill="black"/>
</g>
<path d="M44.7529 15.704V17H40.0549V15.704L41.0989 15.38L45.2209 4.364L47.8669 4.292L51.7549 15.38L52.7809 15.704V17H47.6149V15.704L48.8569 15.344L48.3169 13.598H44.0509L43.4569 15.344L44.7529 15.704ZM44.6269 11.816H47.8129L46.3369 6.686L44.6269 11.816ZM53.1791 17V15.704L54.3851 15.362V9.098L53.1791 8.738V7.442L56.3471 7.298L56.5991 8.666C57.0911 8.186 57.5771 7.82 58.0571 7.568C58.5491 7.304 59.0771 7.172 59.6411 7.172C60.0131 7.172 60.4211 7.232 60.8651 7.352L60.7031 10.682H59.2451L59.0291 9.17C58.9451 9.158 58.8551 9.152 58.7591 9.152C58.4351 9.152 58.1111 9.242 57.7871 9.422C57.4631 9.602 57.1691 9.836 56.9051 10.124V15.362L58.3991 15.704V17H53.1791ZM65.7274 17.216C64.8994 17.216 64.1494 17.024 63.4774 16.64C62.8174 16.256 62.2954 15.698 61.9114 14.966C61.5274 14.222 61.3354 13.328 61.3354 12.284C61.3354 11.336 61.4734 10.538 61.7494 9.89C62.0254 9.23 62.3974 8.702 62.8654 8.306C63.3334 7.91 63.8554 7.622 64.4314 7.442C65.0074 7.262 65.6014 7.172 66.2134 7.172C66.7894 7.172 67.3714 7.244 67.9594 7.388C68.5474 7.532 69.0274 7.694 69.3994 7.874L69.3274 10.52H67.7074L67.4554 9.134C67.2754 9.074 67.0774 9.032 66.8614 9.008C66.6454 8.984 66.4474 8.972 66.2674 8.972C65.4874 8.972 64.9054 9.26 64.5214 9.836C64.1494 10.4 63.9634 11.168 63.9634 12.14C63.9634 13.196 64.1734 14 64.5934 14.552C65.0254 15.092 65.5954 15.362 66.3034 15.362C67.0714 15.362 67.9414 15.05 68.9134 14.426L69.7594 15.704C69.0874 16.22 68.4094 16.604 67.7254 16.856C67.0534 17.096 66.3874 17.216 65.7274 17.216ZM75.1736 15.704V17H70.2596V15.704L71.4476 15.362V4.76L70.2596 4.436V3.14L73.9676 2.996V15.362L75.1736 15.704ZM80.9099 15.704V17H75.9779V15.704L77.1839 15.362V9.08L75.9779 8.738V7.442L79.7039 7.316V15.362L80.9099 15.704ZM78.3719 5.912C77.9279 5.912 77.5679 5.786 77.2919 5.534C77.0279 5.282 76.8959 4.922 76.8959 4.454C76.8959 3.95 77.0339 3.578 77.3099 3.338C77.5979 3.086 77.9579 2.96 78.3899 2.96C78.8099 2.96 79.1579 3.086 79.4339 3.338C79.7099 3.578 79.8479 3.944 79.8479 4.436C79.8479 4.928 79.7039 5.3 79.4159 5.552C79.1399 5.792 78.7919 5.912 78.3719 5.912ZM85.8664 21.356C82.9024 21.356 81.4204 20.57 81.4204 18.998C81.4204 18.062 81.9604 17.336 83.0404 16.82C82.5364 16.616 82.2844 16.286 82.2844 15.83C82.2844 15.71 82.3144 15.566 82.3744 15.398C82.4344 15.23 82.5424 15.008 82.6984 14.732C82.8664 14.444 83.0944 14.066 83.3824 13.598C82.3024 13.01 81.7624 12.056 81.7624 10.736C81.7624 9.62 82.1464 8.75 82.9144 8.126C83.6824 7.49 84.7384 7.172 86.0824 7.172C86.9224 7.172 87.6604 7.298 88.2964 7.55L90.9964 7.46V8.81L89.8984 9.044C90.0304 9.236 90.1264 9.464 90.1864 9.728C90.2584 9.98 90.2944 10.262 90.2944 10.574C90.2944 11.69 89.9044 12.572 89.1244 13.22C88.3444 13.856 87.2944 14.174 85.9744 14.174C85.4824 14.174 85.0024 14.12 84.5344 14.012L84.3184 15.416H87.5224C88.7344 15.416 89.6524 15.65 90.2764 16.118C90.9004 16.586 91.2124 17.27 91.2124 18.17C91.2124 19.202 90.7624 19.988 89.8624 20.528C88.9744 21.08 87.6424 21.356 85.8664 21.356ZM85.9744 12.482C87.1864 12.482 87.7924 11.864 87.7924 10.628C87.7924 9.452 87.2164 8.864 86.0644 8.864C84.8764 8.864 84.2824 9.464 84.2824 10.664C84.2824 11.876 84.8464 12.482 85.9744 12.482ZM86.0824 19.592C87.0304 19.592 87.7204 19.49 88.1524 19.286C88.5844 19.082 88.8004 18.782 88.8004 18.386C88.8004 18.002 88.6564 17.72 88.3684 17.54C88.0804 17.36 87.6664 17.27 87.1264 17.27H84.3904C83.8744 17.654 83.6164 18.074 83.6164 18.53C83.6164 18.89 83.8144 19.154 84.2104 19.322C84.6064 19.502 85.2304 19.592 86.0824 19.592ZM91.6873 17V15.704L92.8753 15.362V4.778L91.6873 4.436V3.14L95.3953 2.996V8.396C95.9113 7.988 96.4393 7.682 96.9793 7.478C97.5193 7.274 98.0353 7.172 98.5273 7.172C99.3313 7.172 100.003 7.43 100.543 7.946C101.095 8.45 101.365 9.212 101.353 10.232V15.344L102.559 15.704V17H97.7533V15.704L98.8333 15.398V10.772C98.8453 10.196 98.7193 9.77 98.4553 9.494C98.1913 9.218 97.8493 9.08 97.4293 9.08C97.1293 9.08 96.7993 9.158 96.4393 9.314C96.0913 9.47 95.7433 9.698 95.3953 9.998V15.38L96.4753 15.704V17H91.6873ZM106.769 17.216C105.089 17.216 104.249 16.226 104.249 14.246V9.062H102.845V7.712L104.249 7.388V5.282L106.787 4.832V7.388H109.253L109.217 9.062H106.787V13.904C106.787 14.42 106.871 14.792 107.039 15.02C107.207 15.248 107.459 15.362 107.795 15.362C108.155 15.362 108.623 15.242 109.199 15.002L109.667 16.388C108.659 16.94 107.693 17.216 106.769 17.216Z" fill="black"/>
<defs>
<clipPath id="clip0">
<rect width="24" height="24" fill="white" transform="translate(0.000854492)"/>
</clipPath>
</defs>
</svg>
