<svg width="150" height="72" viewBox="0 0 150 72" fill="none" xmlns="http://www.w3.org/2000/svg">
<path fill-rule="evenodd" clip-rule="evenodd" d="M102.094 31.2832C101.393 30.4897 100.165 30.0489 98.5431 30.0489H93.677C93.3263 30.0489 93.0633 30.3134 93.0195 30.622L91.0467 43.1411C91.0029 43.4056 91.1782 43.626 91.4413 43.626H93.9401C94.1593 43.626 94.3785 43.4497 94.4223 43.2293L94.9922 39.7028C95.036 39.3942 95.3429 39.1297 95.6498 39.1297H97.1841C100.384 39.1297 102.226 37.5868 102.708 34.5011C102.927 33.0905 102.708 32.0326 102.094 31.2832ZM99.1126 34.6334C98.8496 36.3967 97.5344 36.3967 96.2193 36.3967H95.474L96.0001 33.1346C96.0439 32.9583 96.2193 32.782 96.3946 32.782H96.7453C97.6221 32.782 98.4551 32.782 98.8934 33.2669C99.1126 33.5755 99.2003 34.0163 99.1126 34.6334Z" fill="#8FA0B0"/>
<path fill-rule="evenodd" clip-rule="evenodd" d="M113.053 34.5894H110.73C110.511 34.5894 110.379 34.7216 110.335 34.942L110.248 35.6032L110.072 35.3828C109.59 34.6334 108.45 34.413 107.311 34.413C104.724 34.413 102.532 36.3526 102.138 39.1298C101.918 40.4963 102.225 41.8187 103.014 42.7004C103.716 43.5379 104.724 43.8906 105.952 43.8906C108.012 43.8906 109.152 42.5681 109.152 42.5681L109.064 43.2294C109.02 43.4938 109.196 43.7142 109.459 43.7142H111.563C111.914 43.7142 112.177 43.4498 112.22 43.1412L113.492 35.1624C113.492 34.8098 113.316 34.5894 113.053 34.5894ZM109.811 39.1298C109.592 40.4522 108.54 41.3779 107.181 41.3779C106.523 41.3779 105.953 41.1575 105.603 40.7608C105.252 40.3641 105.121 39.7469 105.252 39.1298C105.471 37.8073 106.523 36.8816 107.839 36.8816C108.496 36.8816 109.022 37.102 109.373 37.4988C109.767 37.8955 109.943 38.4686 109.811 39.1298Z" fill="#8FA0B0"/>
<path fill-rule="evenodd" clip-rule="evenodd" d="M118.446 30.0489H116.21C115.991 30.0489 115.859 30.1811 115.815 30.4015L113.843 43.1411C113.799 43.4056 113.974 43.626 114.237 43.626H116.254C116.604 43.626 116.868 43.4056 116.911 43.053L118.84 30.5338C118.884 30.2693 118.665 30.0489 118.446 30.0489Z" fill="#8FA0B0"/>
<path fill-rule="evenodd" clip-rule="evenodd" d="M67.5047 31.2832C66.8033 30.4897 65.5758 30.0489 63.9538 30.0489H59.0877C58.7369 30.0489 58.4739 30.3134 58.4301 30.622L56.4573 43.1411C56.4135 43.4056 56.5889 43.626 56.8519 43.626H59.1753C59.526 43.626 59.7891 43.4056 59.8329 43.053L60.359 39.6587C60.4028 39.3501 60.7097 39.0856 61.0166 39.0856H62.5509C65.7511 39.0856 67.5924 37.5428 68.0746 34.4571C68.3376 33.0905 68.1184 32.0326 67.5047 31.2832ZM64.5269 34.6334C64.2638 36.3967 62.9487 36.3967 61.6335 36.3967H60.8883L61.4143 33.1346C61.4582 32.9583 61.6335 32.782 61.8089 32.782H62.1596C63.0364 32.782 63.8693 32.782 64.3077 33.2669C64.5269 33.5755 64.6146 34.0163 64.5269 34.6334Z" fill="#8FA0B0"/>
<path fill-rule="evenodd" clip-rule="evenodd" d="M78.4669 34.5894H76.1434C75.9242 34.5894 75.7927 34.7216 75.7489 34.942L75.6612 35.6032L75.4858 35.3828C75.0036 34.6334 73.8638 34.413 72.724 34.413C70.1375 34.413 67.9456 36.3526 67.551 39.1298C67.3318 40.4963 67.6387 41.8187 68.4278 42.7004C69.1292 43.5379 70.1375 43.8906 71.365 43.8906C73.4254 43.8906 74.5652 42.5681 74.5652 42.5681L74.4775 43.2294C74.4337 43.4938 74.6091 43.7142 74.8721 43.7142H76.9763C77.3271 43.7142 77.5901 43.4498 77.6339 43.1412L78.9052 35.1624C78.9052 34.8098 78.6861 34.5894 78.4669 34.5894ZM75.2201 39.1298C75.0009 40.4522 73.9488 41.3779 72.5898 41.3779C71.9322 41.3779 71.3623 41.1575 71.0116 40.7608C70.6609 40.3641 70.5294 39.7469 70.6609 39.1298C70.8801 37.8073 71.9322 36.8816 73.2474 36.8816C73.905 36.8816 74.431 37.102 74.7817 37.4988C75.1763 37.8955 75.3078 38.4686 75.2201 39.1298Z" fill="#8FA0B0"/>
<path fill-rule="evenodd" clip-rule="evenodd" d="M90.8272 34.5893H88.5038C88.2846 34.5893 88.0654 34.7215 87.9339 34.8979L84.7337 39.6587L83.3308 35.0742C83.2431 34.7656 82.9801 34.5893 82.6732 34.5893H80.3936C80.1306 34.5893 79.9114 34.8538 79.9991 35.1183L82.5856 42.7003L80.1744 46.1387C79.9991 46.4032 80.1744 46.7999 80.5251 46.7999H82.8486C83.0678 46.7999 83.287 46.7117 83.4185 46.4913L91.178 35.2064C91.3533 34.9419 91.1341 34.5893 90.8272 34.5893Z" fill="#8FA0B0"/>
<path fill-rule="evenodd" clip-rule="evenodd" d="M48.4802 31.4596C48.2172 31.151 47.9103 30.9306 47.5158 30.7102C47.5158 30.8424 47.472 30.9747 47.4281 31.1069C47.3843 31.2392 47.3843 31.3714 47.3404 31.4596C46.5075 35.2065 44.1402 36.7934 41.0715 37.1461C40.8523 37.1902 40.677 37.1902 40.4578 37.1902C40.2386 37.1902 39.9755 37.1902 39.7563 37.1902H37.7836C37.3014 37.1902 36.9068 37.5428 36.863 37.9836L35.9862 43.6261L35.8547 44.3755L35.5478 46.1828C35.504 46.4914 35.7232 46.7559 36.03 46.7559H39.4933C39.8879 46.7559 40.2386 46.4473 40.3262 46.0506L40.3701 45.8743L41.0277 41.7306L41.0715 41.5102C41.1153 41.1134 41.466 40.8049 41.9044 40.8049H42.4305C45.8061 40.8049 48.3926 39.4383 49.1817 35.471C49.4885 33.7959 49.3132 32.4294 48.4802 31.4596Z" fill="#8FA0B0"/>
<path fill-rule="evenodd" clip-rule="evenodd" d="M36.8618 38.0278L36.9057 37.8074L38.0016 30.7543C38.0455 30.4899 38.2208 30.2254 38.4839 30.1372C38.6154 30.0931 38.7031 30.049 38.8346 30.049H44.0514C44.6651 30.049 45.235 30.0931 45.7611 30.1813C45.8926 30.2254 46.068 30.2254 46.1995 30.2694C46.331 30.3135 46.4625 30.3576 46.594 30.3576C46.6379 30.3576 46.6817 30.4017 46.7255 30.4017H46.7694C46.7694 30.4017 46.7694 30.4017 46.8132 30.4017C47.0763 30.4899 47.2955 30.578 47.5146 30.7103C47.7777 29.0352 47.5146 27.889 46.594 26.8752C45.6296 25.729 43.8322 25.2441 41.5526 25.2441H34.8891C34.4069 25.2441 34.0123 25.5968 33.9685 26.0376L31.1628 43.7143C31.119 44.067 31.382 44.3756 31.7327 44.3756H35.8535L35.9851 43.6262L36.8618 38.0278Z" fill="#8FA0B0"/>
<path fill-rule="evenodd" clip-rule="evenodd" d="M47.5155 30.7101C47.2963 30.5779 47.0771 30.4897 46.8141 30.4015C46.8141 30.4015 46.8141 30.4015 46.7702 30.4015H46.7264C46.6825 30.4015 46.6387 30.3575 46.5949 30.3575C46.4633 30.3134 46.3318 30.2693 46.2003 30.2693C46.0688 30.2252 45.8934 30.2252 45.7619 30.1811C45.2359 30.093 44.666 30.0489 44.0522 30.0489H38.7916C38.6601 30.0489 38.5285 30.093 38.4409 30.1371C38.2217 30.2693 38.0025 30.4897 37.9586 30.7542L36.8627 37.8073V38.0277C36.9503 37.5428 37.3449 37.2342 37.7833 37.2342H39.756C39.9752 37.2342 40.2383 37.2342 40.4574 37.2342C40.6766 37.2342 40.8958 37.1901 41.0712 37.1901C44.1399 36.8375 46.5072 35.2505 47.384 31.5477C47.4278 31.4154 47.4278 31.3273 47.4716 31.195C47.4716 30.9746 47.5155 30.8424 47.5155 30.7101Z" fill="#8FA0B0"/>
</svg>
