<svg width="24" height="24" viewBox="0 0 24 24" fill="none" xmlns="http://www.w3.org/2000/svg">
<path d="M0 12C0 5.3726 5.3726 0 12 0C18.6274 0 24 5.3726 24 12C24 18.6274 18.6274 24 12 24C5.3726 24 0 18.6274 0 12Z" fill="#0077B5"/>
<path fill-rule="evenodd" clip-rule="evenodd" d="M8.65938 7.41135C8.65938 8.1959 8.06883 8.82365 7.12058 8.82365H7.10318C6.19023 8.82365 5.59998 8.1959 5.59998 7.41135C5.59998 6.6102 6.20818 6 7.13848 6C8.06883 6 8.64173 6.6102 8.65938 7.41135ZM8.48023 9.9389V18.1098H5.76078V9.9389H8.48023ZM18.2876 18.1098L18.2877 13.4249C18.2877 10.9152 16.9461 9.74705 15.1565 9.74705C13.7127 9.74705 13.0662 10.5401 12.7053 11.0964V9.93915H9.98553C10.0214 10.7058 9.98553 18.11 9.98553 18.11H12.7053V13.5467C12.7053 13.3025 12.723 13.0589 12.7949 12.8841C12.9914 12.3962 13.4389 11.8911 14.1902 11.8911C15.1747 11.8911 15.5682 12.6403 15.5682 13.7383V18.1098H18.2876Z" fill="white"/>
</svg>
