<svg width="24" height="24" viewBox="0 0 24 24" fill="none" xmlns="http://www.w3.org/2000/svg">
<path d="M0 12C0 5.3726 5.3726 0 12 0C18.6274 0 24 5.3726 24 12C24 18.6274 18.6274 24 12 24C5.3726 24 0 18.6274 0 12Z" fill="#55ACEE"/>
<path d="M11.6406 9.75376L11.6658 10.169L11.2461 10.1182C9.71845 9.92326 8.38385 9.26226 7.25065 8.15216L6.6967 7.60136L6.554 8.00811C6.2518 8.91486 6.44485 9.87241 7.0744 10.5164C7.41015 10.8724 7.3346 10.9232 6.75545 10.7114C6.554 10.6436 6.3777 10.5927 6.36095 10.6181C6.3022 10.6775 6.50365 11.4486 6.6631 11.7537C6.88135 12.1774 7.3262 12.5926 7.81305 12.8383L8.22435 13.0332L7.7375 13.0417C7.26745 13.0417 7.25065 13.0502 7.30105 13.2281C7.4689 13.7789 8.132 14.3637 8.87065 14.6179L9.3911 14.7958L8.9378 15.067C8.2663 15.4568 7.4773 15.6771 6.6883 15.6941C6.31055 15.7026 6 15.7364 6 15.7619C6 15.8466 7.02405 16.3212 7.62 16.5076C9.40785 17.0584 11.5315 16.8211 13.1263 15.8805C14.2594 15.2111 15.3926 13.8806 15.9214 12.5926C16.2068 11.9062 16.4922 10.652 16.4922 10.0504C16.4922 9.66056 16.5174 9.60971 16.9874 9.14366C17.2644 8.87246 17.5246 8.57586 17.575 8.49116C17.6589 8.33016 17.6505 8.33016 17.2225 8.47421C16.509 8.72841 16.4082 8.69451 16.7608 8.31321C17.021 8.04201 17.3316 7.55051 17.3316 7.40646C17.3316 7.38106 17.2057 7.42341 17.063 7.49966C16.9119 7.58441 16.5762 7.71151 16.3243 7.78781L15.871 7.93186L15.4598 7.65221C15.2332 7.49966 14.9141 7.33021 14.7463 7.27936C14.3182 7.16071 13.6635 7.17766 13.2774 7.31326C12.2281 7.69461 11.5651 8.67756 11.6406 9.75376Z" fill="white"/>
</svg>
